<?xml version="1.0" standalone="no"?>
<!DOCTYPE svg PUBLIC "-//W3C//DTD SVG 1.1//EN" "http://www.w3.org/Graphics/SVG/1.1/DTD/svg11.dtd" >
<!--
2020-2-20: Created with FontForge (http://fontforge.org)
-->
<svg xmlns="http://www.w3.org/2000/svg" xmlns:xlink="http://www.w3.org/1999/xlink" version="1.1">
<metadata>
Created by FontForge 20190801 at Thu Feb 20 10:15:19 2020
 By nowcoder

</metadata>
<defs>
<font id="global" horiz-adv-x="512" >
  <font-face 
    font-family="global"
    font-weight="400"
    font-stretch="normal"
    units-per-em="512"
    panose-1="2 0 5 3 0 0 0 0 0 0"
    ascent="448"
    descent="-64"
    bbox="-32 -74.4961 516.928 456.704"
    underline-thickness="25.6"
    underline-position="-51.2"
    unicode-range="U+0020-F1C0"
  />
    <missing-glyph />
    <glyph glyph-name="space" unicode=" " horiz-adv-x="200" 
 />
    <glyph glyph-name="agree" unicode="&#xf197;" 
d="M160 271.872c-8.7041 0 -15.8721 7.16797 -16.1279 16.1279c0 8.7041 7.16797 15.8721 16.1279 15.8721h192c8.7041 0 15.8721 -6.91211 15.8721 -15.8721s-6.91211 -16.1279 -15.8721 -16.1279h-192zM224 336.128v0c-8.7041 0 -15.8721 6.91211 -16.1279 15.8721
c0 8.95996 7.16797 16.1279 16.1279 16.1279h79.8721c8.7041 0 15.8721 -7.16797 15.8721 -16.1279c0 -8.7041 -6.91211 -15.8721 -15.8721 -15.8721h-79.8721zM160 208.128c-8.7041 0 -16.1279 7.16797 -16.1279 15.8721s7.16797 15.8721 16.1279 15.8721h192
c8.7041 0 15.8721 -7.16797 15.8721 -15.8721s-6.91211 -15.8721 -15.8721 -15.8721h-192zM240.128 80.1279c0 44.0322 35.584 79.8721 79.8721 79.8721c44.0322 0 79.8721 -35.8398 79.8721 -79.8721s-35.8398 -79.8721 -79.8721 -79.8721
s-79.8721 35.8398 -79.8721 79.8721zM367.872 80.1279c0 26.3682 -21.5039 47.8721 -48.1279 47.8721c-26.3682 0 -47.8721 -21.5039 -47.8721 -47.8721s21.5039 -47.8721 47.8721 -47.8721c26.624 0 48.1279 21.5039 48.1279 47.8721zM160 48.1279
c-8.7041 0 -15.8721 6.91211 -15.8721 15.8721s6.91211 16.1279 15.8721 16.1279h32c8.7041 0 15.8721 -7.16797 15.8721 -15.8721c0 -8.95996 -6.91211 -16.1279 -15.8721 -16.1279h-32zM303.872 64v32h32v-32h-32zM431.872 448c17.6641 0 32 -14.3359 32 -32v-448
c0 -17.6641 -14.3359 -32 -32 -32h-351.744c-17.6641 0 -32 14.3359 -32 32v448c0 17.6641 14.3359 32 32 32h351.744zM431.872 -32v0v448h-351.744v-448h351.744z" />
    <glyph glyph-name="agree1" unicode="&#xf1b7;" 
d="M160 271.872c-8.7041 0 -15.8721 7.16797 -16.1279 16.1279c0 8.7041 7.16797 15.8721 16.1279 15.8721h192c8.7041 0 15.8721 -6.91211 15.8721 -15.8721s-6.91211 -16.1279 -15.8721 -16.1279h-192zM224 336.128v0c-8.7041 0 -15.8721 6.91211 -16.1279 15.8721
c0 8.95996 7.16797 16.1279 16.1279 16.1279h79.8721c8.7041 0 15.8721 -7.16797 15.8721 -16.1279c0 -8.7041 -6.91211 -15.8721 -15.8721 -15.8721h-79.8721zM160 208.128c-8.7041 0 -16.1279 7.16797 -16.1279 15.8721s7.16797 15.8721 16.1279 15.8721h192
c8.7041 0 15.8721 -7.16797 15.8721 -15.8721s-6.91211 -15.8721 -15.8721 -15.8721h-192zM240.128 80.1279c0 44.0322 35.584 79.8721 79.8721 79.8721c44.0322 0 79.8721 -35.8398 79.8721 -79.8721s-35.8398 -79.8721 -79.8721 -79.8721
s-79.8721 35.8398 -79.8721 79.8721zM367.872 80.1279c0 26.3682 -21.5039 47.8721 -48.1279 47.8721c-26.3682 0 -47.8721 -21.5039 -47.8721 -47.8721s21.5039 -47.8721 47.8721 -47.8721c26.624 0 48.1279 21.5039 48.1279 47.8721zM160 48.1279
c-8.7041 0 -15.8721 6.91211 -15.8721 15.8721s6.91211 16.1279 15.8721 16.1279h32c8.7041 0 15.8721 -7.16797 15.8721 -15.8721c0 -8.95996 -6.91211 -16.1279 -15.8721 -16.1279h-32zM303.872 64v32h32v-32h-32zM431.872 448c17.6641 0 32 -14.3359 32 -32v-448
c0 -17.6641 -14.3359 -32 -32 -32h-351.744c-17.6641 0 -32 14.3359 -32 32v448c0 17.6641 14.3359 32 32 32h351.744zM431.872 -32v0v448h-351.744v-448h351.744z" />
    <glyph glyph-name="arrow" unicode="&#xf1b9;" 
d="M1.59473 206.355h430.654v-39.876h-430.654v39.876zM411.514 246.23l100.486 -59.0156l-100.486 -60.6104v119.626z" />
    <glyph glyph-name="arrow-down" unicode="&#xf1a6;" 
d="M256 -64l-174.592 245.248h116.479v266.752h116.225v-266.752h116.479z" />
    <glyph glyph-name="arrow-up" unicode="&#xf1a7;" 
d="M256 448l174.848 -245.248h-116.479v-266.752h-116.48v266.752h-116.479z" />
    <glyph glyph-name="balance-popup" unicode="&#xf1bc;" 
d="M255.998 448v0v0c141.387 0 255.996 -114.612 256.002 -255.994c0 -141.394 -114.615 -256.006 -256.002 -256.006c-141.383 0 -255.998 114.612 -255.998 256.006c0 141.382 114.615 255.994 255.998 255.994zM361.6 132.873
c0 23.0928 -14.6562 21.9854 -14.6572 21.9863h-65.957v36.6426h65.958c11.3828 0 14.6562 10.6113 14.6562 21.9863c0 5.60059 -3.27344 14.6562 -14.6562 14.6562h-51.3008l57.6816 68.0605c7.39941 8.6416 6.39355 21.7588 -2.25781 29.1572v0
c-8.64062 7.39355 -21.75 6.38965 -29.1543 -2.2627l-62.8672 -73.2881l-62.8662 73.2891c-7.39844 8.65234 -20.5078 9.65625 -29.1533 2.2627v0c-8.64648 -7.39844 -9.65137 -20.5156 -2.26367 -29.1572l57.5957 -68.0615h-51.3008
c-11.3828 0 -14.6562 -10.5938 -14.6562 -21.9854c0 -6.12598 3.27832 -14.6572 14.6562 -14.6572h65.957v-36.6426h-65.957c-11.3828 0 -14.6572 -7.33203 -14.6572 -14.6572c0 -17.6406 6.59277 -22.1807 17.9697 -22.1807l62.6445 0.194336v-51.2998
c0 -11.3809 10.6006 -22.959 21.9834 -22.959c11.3887 0 21.9883 11.5781 21.9883 22.959v51.2998l62.6875 -0.194336c11.3828 0 17.9268 7.5 17.9268 14.8516z" />
    <glyph glyph-name="blog" unicode="&#xf136;" 
d="M35.0635 -38.5771c0 0 100.342 354.988 440.96 486.577c0 0 5.67188 -21.5156 -15.2051 -45.6162c-20.877 -24.1016 -76.0273 -76.0283 -76.0273 -76.0283s-4.10547 -21.835 76.0273 15.2061c0 0 -10.0205 -77.457 -106.438 -91.2334
c0 0 -9.47363 -9.60938 15.2051 -15.2051c0 0 96.8438 22.3672 15.2061 -45.6172c0 0 -92.6777 -47.502 -167.261 -60.8223c-74.583 -13.3193 -152.056 -182.466 -152.056 -182.466s-28.3584 -31.0957 -30.4111 15.2051z" />
    <glyph glyph-name="book" unicode="&#xf166;" 
d="M446.808 387.578c9.54004 0 15.9004 -9.54102 15.9004 -15.9014v-375.255c0 -31.8008 -28.6211 -60.4219 -63.6025 -60.4219h-283.031h-3.17969h-3.18066c-28.6211 3.17969 -57.2422 25.4414 -60.4219 54.0625v6.35938v3.18066v391.155
c0 38.1611 34.9814 57.2422 69.9629 57.2422h216.248c38.1621 0 63.6025 -22.2607 63.6025 -57.2422v-311.652c0 -9.54004 -6.36035 -15.9004 -15.9004 -15.9004h-267.131c-19.0801 0 -38.1611 -9.54004 -38.1611 -25.4414v-34.9814
c0 -15.9004 22.2607 -31.8008 41.3418 -31.8008h279.851c15.9004 0 31.8018 15.9004 31.8018 31.8008v368.895c0 9.54102 6.35938 15.9014 15.9004 15.9014zM386.385 31.4033c9.54102 0 15.9014 -6.35938 15.9014 -15.9004c0 -9.54004 -6.36035 -15.9004 -15.9014 -15.9004
h-260.77c-9.54102 0 -15.9014 6.36035 -15.9014 15.9004c0 9.54102 6.36035 15.9004 15.9014 15.9004h260.77z" />
    <glyph glyph-name="book2" unicode="&#xf172;" 
d="M256 448c141.312 0 256 -114.688 256 -256s-114.688 -256 -256 -256s-256 114.688 -256 256s114.688 256 256 256zM243.2 54.5283v0v205.056c0 14.5918 -22.2725 39.4238 -40.96 39.4238h-87.2959v-218.111h81.6641c14.5918 0 46.5918 -8.7041 46.5918 -26.3682z
M397.056 80.8965v0v218.111h-87.2959c-18.6875 0 -40.96 -24.832 -40.96 -39.4238v-205.056c0 17.6641 31.7441 26.3682 46.5918 26.3682h81.6641z" />
    <glyph glyph-name="book3" unicode="&#xf192;" 
d="M158.351 448c33.7451 0 74.2793 -44.9697 74.2793 -71.6523v-371.908c0 32.1074 -57.7988 47.7686 -84.583 47.7686h-148.047v395.792h158.351zM353.483 448h158.316v-395.792h-148.047c-26.8184 0 -84.583 -15.6611 -84.583 -47.7686v371.908
c0 26.6826 40.5342 71.6523 74.3135 71.6523z" />
    <glyph glyph-name="cancel" unicode="&#xf16f;" 
d="M257.843 -64.6143c-65.7402 0 -129.74 24.5762 -180.633 75.5713c-99.7383 99.2256 -100.25 260.505 -1.02441 360.243c0.307617 0.306641 0.716797 0.716797 1.02441 1.02344c99.2256 99.7383 260.505 100.25 360.243 1.02441
c0.306641 -0.307617 0.716797 -0.716797 1.02344 -1.02441c99.7383 -99.2256 100.25 -260.505 1.02441 -360.243c-0.307617 -0.306641 -0.716797 -0.716797 -1.02441 -1.02344c-50.8926 -50.8926 -114.893 -75.5713 -180.634 -75.5713zM256.205 423.219
c-59.085 0 -118.272 -23.0391 -164.25 -69.0176c-90.3164 -90.3164 -90.3164 -238.182 0 -328.499c90.3174 -90.3164 238.183 -90.3164 328.499 0c90.3174 90.3174 90.3174 238.183 0 328.499c-42.7002 45.9785 -103.424 67.3799 -164.249 69.0176zM188.928 293.479
l172.441 -172.441c7.27051 -7.06543 7.47559 -18.6367 0.410156 -25.9072l-0.410156 -0.410156c-7.06543 -7.27051 -18.6367 -7.37207 -25.9072 -0.306641c-0.101562 0.102539 -0.204102 0.204102 -0.306641 0.306641l-172.544 172.441
c-6.55371 6.55371 -6.55371 16.3848 1.63867 24.5762c4.91504 8.29492 16.4863 9.93262 24.6777 1.74121v0zM361.369 268.8l-172.441 -172.441c-6.55371 -6.55371 -18.0225 -8.19238 -24.5762 -1.63867c-7.26953 7.06543 -7.37207 18.6367 -0.306641 25.9072
c0.102539 0.102539 0.205078 0.205078 0.306641 0.307617l172.442 172.441c7.06543 7.27051 18.6367 7.37305 25.9072 0.307617c0.101562 -0.102539 0.204102 -0.205078 0.306641 -0.307617c3.27734 -6.55371 4.91504 -18.0225 -1.63867 -24.5762v0z" />
    <glyph glyph-name="check" unicode="&#xf168;" 
d="M168.704 18.1758c-7.16797 0 -13.5684 3.07227 -18.6885 8.44824l-142.592 147.968c-10.4961 10.4961 -9.47168 27.1357 1.02441 36.3525c10.4961 10.4961 27.1357 9.47168 36.3516 -1.02441l124.928 -130.048l299.009 279.04
c10.4961 9.47168 27.1357 9.47168 36.3516 -1.02441c9.47168 -10.4961 9.47168 -27.1357 -1.02344 -36.3516l-317.696 -295.937c-5.12012 -5.11914 -11.5205 -7.42383 -17.6641 -7.42383z" />
    <glyph glyph-name="check_screen" unicode="&#xf1af;" 
d="M435.177 162.72v185.795c0 14.6738 -11.8965 26.5713 -26.5371 26.5713h-305.279c-14.6406 0 -26.5371 -11.8975 -26.5371 -26.5371v-185.829h358.354zM435.177 109.646v26.5371h-358.354v-26.5371v-0.0341797c0 -14.6484 11.8887 -26.5371 26.5371 -26.5371v0h305.279
c14.6484 0 26.5371 11.8887 26.5371 26.5371v0.0341797zM236.08 3.42871h53.1084v53.0742h-53.1084v-53.0742zM408.64 401.623c29.3145 0 53.0742 -23.7949 53.0742 -53.1084v-238.869c0 -29.3486 -23.7598 -53.1084 -53.0742 -53.1084h-92.9141v-53.0742h26.5371v0
c7.32422 0 13.2686 -5.94434 13.2686 -13.2686s-5.94434 -13.2686 -13.2686 -13.2686v0h-159.257v0c-7.32422 0 -13.2686 5.94434 -13.2686 13.2686s5.94434 13.2686 13.2686 13.2686v0h26.5371v53.0742h-106.183c-29.3145 0 -53.0742 23.7598 -53.0742 53.1084v238.869
c0 29.3135 23.7598 53.1084 53.0742 53.1084h305.279z" />
    <glyph glyph-name="circle" unicode="&#xf1a4;" 
d="M462.336 192c0 113.92 -92.416 206.336 -206.336 206.336s-206.336 -92.416 -206.336 -206.336s92.416 -206.336 206.336 -206.336s206.336 92.416 206.336 206.336zM512 192c0 -141.312 -114.688 -256 -256 -256s-256 114.688 -256 256s114.688 256 256 256
s256 -114.688 256 -256zM330.24 192c0 40.96 -33.2803 74.2402 -74.2402 74.2402s-74.2402 -33.2803 -74.2402 -74.2402s33.2803 -74.2402 74.2402 -74.2402s74.2402 33.2803 74.2402 74.2402zM379.904 192c0 -68.3516 -55.5527 -123.904 -123.904 -123.904
s-123.904 55.5527 -123.904 123.904s55.5527 123.904 123.904 123.904s123.904 -55.5527 123.904 -123.904z" />
    <glyph glyph-name="clap" unicode="&#xf173;" 
d="M412.562 82.9092c-0.921875 -36.248 -16.7412 -66.1982 -39.627 -93.1797c-19.7109 -23.1934 -42.2891 -42.1357 -72.6494 -49.7139c-32.6641 -8.19141 -63.9463 -3.42969 -94.2041 10.4453c-25.4453 11.6729 -47.665 27.9531 -67.4268 47.665
c-30.1904 30.1475 -79.1602 79.1162 -109.308 109.306c-5.78516 5.78613 -10.3418 11.8779 -7.47559 21.043c5.3252 16.9971 22.374 21.9639 35.3271 9.47168c17.7148 -17.1514 34.9688 -34.8145 52.4268 -52.2217c1.94531 -1.94531 3.89062 -5.01758 6.0918 -5.22266
c4.65918 -0.459961 10.957 -1.02344 13.875 1.53613c2.50879 2.20117 1.99707 8.75488 1.33105 13.1582c-0.358398 2.45703 -3.63477 4.60742 -5.7334 6.75781c-30.1562 30.3086 -60.4658 60.4648 -90.5186 90.876c-11.877 11.9795 -7.78223 30.5654 7.47559 34.7637
c10.0342 2.76465 17.9697 -1.28027 25.0352 -8.44824c27.4932 -27.9023 55.2422 -55.6504 82.8896 -83.4004c1.94434 -1.94434 3.83984 -3.99316 5.98926 -5.5791c4.8125 -3.53418 9.83008 -3.38086 14.2334 0.664062c4.50488 4.14648 4.6084 9.21582 1.43359 14.1309
c-1.89453 2.91797 -4.55664 5.47852 -7.06543 7.98633c-36.6064 36.6582 -73.2637 73.2646 -109.768 109.973c-13.2607 13.3633 -9.0625 32.1523 8.08887 36.8623c8.49902 2.35547 15.001 -1.53613 20.6328 -7.11621c19.915 -19.6602 39.6777 -39.3711 59.4395 -59.1338
c17.6133 -17.6631 35.1221 -35.4277 52.7344 -53.04c2.30371 -2.30371 4.76172 -5.63184 7.52637 -6.04199c4.04492 -0.665039 9.2666 -0.40918 12.4922 1.74121c4.40332 2.86719 5.27246 8.29395 1.89355 13.1064c-1.84277 2.66211 -4.09473 5.12012 -6.39941 7.42383
c-28.6191 28.7725 -57.3408 57.3926 -85.8584 86.2168c-12.0312 12.1338 -8.5498 30.2578 6.65527 34.9678c9.98438 3.07227 17.9707 -0.71582 25.0879 -7.93555c28.6191 -28.8242 57.3408 -57.4434 86.0117 -86.1143c20.8887 -20.9395 41.6748 -42.084 62.8193 -62.7686
c3.22559 -3.12305 8.3457 -6.19531 12.5439 -6.09277c7.62793 0.102539 11.3145 9.11328 7.67969 16.9473c-9.37012 20.1201 -19.251 39.9844 -28.21 60.208c-2.66309 6.04102 -4.35254 13.1064 -4.25 19.6602c0.205078 13.8232 14.54 22.5273 26.8789 16.5879
c4.70996 -2.30371 9.88184 -5.8877 12.3896 -10.291c23.2441 -40.9072 46.4873 -81.8652 68.6055 -123.438c8.39648 -15.7178 11.1611 -33.5859 10.9043 -51.7607h0.000976562zM371.298 -53.0205c10.8535 12.3896 22.1162 24.0117 31.8447 36.7598
c23.3965 30.5645 37.8857 64.6631 36.7598 103.932c-0.819336 28.9775 -9.67676 55.9072 -23.9102 81.0459c-17.5088 30.9746 -35.1211 61.9482 -53.04 92.668c-4.50586 7.73047 -6.75781 14.6934 -0.716797 22.5781c6.19531 8.08887 14.0791 11.7744 24.2676 10.3418
c11.6729 -1.69043 18.9434 -9.11328 24.4219 -18.79c8.2207 -14.3711 21.5234 -37.7197 29.6943 -52.1191c9.88086 -17.3564 19.3525 -35.0186 29.6953 -52.1191c32.8682 -54.2188 24.7793 -113.864 -11.5713 -162.911c-19.916 -26.9307 -43.5693 -49.252 -76.6436 -59.1846
c-2.37695 -0.717773 -6.25293 -1.81836 -8.65234 -2.45801c-0.5625 -0.102539 -1.12598 0.102539 -2.14941 0.256836zM278.886 282.529c-10.9053 -11.5205 -14.6426 -25.3438 -12.3906 -42.3408c-2.25195 1.63867 -3.32715 2.25293 -4.19727 3.12305
c-24.627 24.5752 -48.9971 49.3555 -73.8789 73.6221c-5.68262 5.5293 -5.22168 9.93262 -1.22852 15.6152c8.08887 11.5205 26.5205 15.4619 37.0674 5.58105c18.6865 -17.5098 36.043 -36.5557 54.6279 -55.6006zM307.044 384.207
c2.40625 19.251 4.50586 36.248 6.75781 54.5771c9.57422 -4.14648 18.2266 -7.83301 28.2617 -12.1846c-11.6221 -14.0801 -22.6807 -27.3906 -35.0195 -42.3926zM208.745 387.485c-10.4443 12.5938 -20.8887 25.1885 -32.3574 38.9609
c9.41992 4.35156 18.0732 8.34473 28.0566 12.9531c2.20215 -17.9707 4.25 -34.6104 6.24609 -51.1982c-0.614258 -0.255859 -1.28027 -0.459961 -1.94531 -0.71582zM273.459 448c-4.91504 -15.9736 -9.52344 -30.9238 -14.1309 -45.873
c-0.511719 -0.0517578 -1.02441 -0.102539 -1.53613 -0.102539c-4.65918 15.0518 -9.31836 30.1045 -14.2842 45.9756h29.9502h0.000976562z" />
    <glyph glyph-name="close" unicode="&#xf169;" 
d="M6.40039 412.416c-0.256836 0 -0.512695 0.255859 -0.512695 0.255859c-7.93555 8.44824 -7.67969 21.5039 0.512695 29.4404c8.19141 7.93555 21.248 7.67969 29.1836 -0.512695l470.272 -469.76l0.511719 -0.511719
c7.93555 -8.44824 7.67969 -21.5039 -0.511719 -29.4404c-8.44824 -7.93555 -21.5049 -7.67969 -29.4404 0.512695zM476.416 441.6c0 0.256836 0.255859 0.512695 0.255859 0.768555c8.44824 7.93555 21.5039 7.67969 29.4404 -0.511719
c7.93555 -8.44824 7.67969 -21.5049 -0.512695 -29.4404l-469.76 -470.272l-0.511719 -0.511719c-8.44824 -7.93555 -21.5039 -7.67969 -29.4404 0.511719c-7.93555 8.44824 -7.67969 21.5049 0.512695 29.4404z" />
    <glyph glyph-name="code" unicode="&#xf174;" 
d="M448 42.752h-170.752v-42.752h106.752c11.7764 0 21.248 -9.47168 21.248 -21.248s-9.47168 -21.248 -21.248 -21.248h-256c-11.7764 0 -21.248 9.47168 -21.248 21.248s9.47168 21.248 21.248 21.248h106.752v42.752h-170.752c-35.3281 0 -64 28.6719 -64 64v234.496
c0 47.1035 38.1436 85.5039 85.248 85.5039h362.752c35.3281 0 64 -28.6719 64 -64v0v-256c0 -35.3281 -28.6719 -64 -64 -64v0zM166.144 311.552c-6.65527 8.95996 -19.4551 11.0078 -28.416 4.35254c-0.255859 -0.255859 -0.511719 -0.512695 -1.02344 -0.768555
l-65.0244 -53.7598c-4.35156 -3.58398 -7.16797 -8.7041 -7.67969 -14.5918c-0.511719 -9.47266 -0.511719 -18.9443 0.511719 -28.1602c0.512695 -5.8877 3.58398 -11.2637 8.19238 -14.8477l65.2803 -50.1768c8.44727 -6.65527 20.7354 -5.37598 27.6475 2.81641
c-0.255859 -0.255859 -0.255859 -0.511719 -0.255859 -0.511719l1.02441 1.02344c-0.256836 -0.255859 -0.512695 -0.255859 -0.512695 -0.511719c7.42383 9.47168 5.63184 23.2959 -3.83984 30.9756l-58.624 44.8008l59.3926 49.1514
c9.21582 7.42383 10.4951 20.7363 3.32715 30.208zM302.08 329.728c-10.2402 5.63281 -23.2959 1.79199 -28.9277 -8.44727l-71.4248 -131.072c-5.8877 -10.2402 -2.30371 -23.2959 7.93652 -29.1836c10.2402 -5.88867 23.2959 -2.30469 29.1836 7.93555
c0.255859 0.255859 0.255859 0.511719 0.512695 0.767578l71.4238 131.072c5.37598 10.2402 1.53613 23.04 -8.7041 28.9277v0v0zM448 246.784c-0.511719 5.63184 -3.32812 11.0078 -7.67969 14.5918l-65.2803 53.7598c-8.7041 7.16797 -21.5039 5.88867 -28.416 -2.55957
c-0.255859 -0.255859 -0.511719 -0.511719 -0.767578 -1.02441c-7.16797 -9.47168 -5.63281 -22.7842 3.32715 -30.4639l59.3926 -49.1523l-58.3682 -45.0557c-9.47168 -7.42383 -11.2637 -21.248 -3.83984 -30.9756
c-0.255859 0.255859 -0.511719 0.255859 -0.511719 0.511719l1.02344 -1.02441c-0.255859 0.256836 -0.255859 0.512695 -0.255859 0.512695c6.91211 -8.19238 19.2002 -9.47266 27.6484 -2.81641l65.2793 50.1758c4.86426 3.58398 7.68066 8.95996 8.19238 14.8486
c0.767578 9.72754 0.767578 19.1992 0.255859 28.6719z" />
    <glyph glyph-name="codelogin" unicode="&#xf16a;" 
d="M0 448h196.923v-196.923zM315.077 448h196.923v-196.923h-196.923v196.923zM315.077 132.923v39.3848h-39.3848l-39.3848 39.7393v78.415h39.3848v-39.3848h39.3848v-39.3848h78.7686v-39.3848h-39.3838v-39.3848h39.3848v39.3848h39.3848v39.3848h78.7686v-39.3848
h-39.3848v-39.3848h39.3848v-196.923zM354.462 408.615v-118.153h118.153v118.153h-118.153v0zM354.462 93.5381l118.153 -118.153v118.153h-118.153v0zM39.3838 408.615h0.000976562h118.153v-118.154zM384 379.077h59.0771v-59.0771h-59.0771v59.0771zM384 64h59.0771
v-59.0771zM236.308 369.231h39.3848v-39.3857h-39.3848v39.3857zM236.308 448h39.3848v-39.3848h-39.3848v39.3848zM128 320v59.0771h-59.0771z" />
    <glyph glyph-name="coin" unicode="&#xf16b;" 
d="M451.584 109.312c5.37598 8.44824 7.93555 3.84082 8.19238 0v-58.3672c0 -56.3203 -90.8799 -114.944 -203.521 -114.944c-112.64 0 -203.775 58.3682 -203.775 114.944v58.1113c0 4.09668 2.81543 8.7041 7.93555 0.255859
c24.5762 -39.6797 102.912 -68.6074 195.584 -68.6074s171.008 28.9277 195.584 68.6074zM452.096 258.048c4.86426 7.42383 7.42383 3.58398 7.68066 0v-68.6074c0 -51.2002 -91.1367 -92.6729 -203.521 -92.6729s-203.52 41.4727 -203.52 92.6729v68.6074
s2.55957 7.16797 7.67969 0c23.8076 -35.0723 102.656 -60.6719 195.84 -60.6719c93.1846 0 171.776 25.5996 195.84 60.6719zM256 448c112.64 0 203.52 -34.3037 203.264 -76.5439v-36.6084c0 -44.7998 -91.1357 -81.1514 -203.52 -81.1514
s-203.521 36.3516 -203.521 81.1514v36.6084c0 42.2402 91.1367 76.5439 203.776 76.5439z" />
    <glyph glyph-name="comfirm" unicode="&#xf16c;" 
d="M93.7002 246.45h259.3v-33.4004h-259.3v33.4004zM93.7002 171.1h242.649v-33.3994h-242.649v33.3994zM93.7002 95.7002h167v-33.3506h-167v33.3506zM93.7002 321.75h142.149v-33.4004h-142.149v33.4004zM43.3496 413.95v-443.75h217.5v-33.25h-221.55
c-16.0996 0 -29.2002 13.1494 -29.2002 29.2998v451.95c0 16.0996 13.0508 29.2002 29.2002 29.2002h269.65l0.200195 -0.300781l127.6 -136.149v-184.5h-33.3496v162h-125.601v125.5h-234.45zM311.2 321.75v0.0996094h63.3994l-63.3994 67.8506v-67.9502zM311.2 321.75z
M494 119.55h0.0996094v-0.0996094c8.10059 -6.25 9.55078 -17.75 3.4502 -25.8506l-114.25 -149.649c-6.5 -8.4502 -18.7998 -9.65039 -26.7998 -2.65039l-79.5996 69.6006c-7.7002 6.69922 -8.5 18.3496 -1.80078 26.0498c6.60059 7.64941 18.25 8.4502 25.9502 1.75
l64.7998 -56.7002l102.301 134.1c6.25 8.10059 17.75 9.55078 25.8496 3.4502zM494 119.55z" />
    <glyph glyph-name="company" unicode="&#xf16d;" 
d="M484.352 18.9443v0c14.0801 0 25.0889 -11.2646 25.3447 -25.0879v-32.7686c0 -13.8242 -11.2646 -25.0879 -25.0879 -25.0879h-456.96c-13.8242 0 -25.0889 11.2637 -25.0889 25.0879v32.7686c0 13.8232 11.2646 25.0879 25.0889 25.0879h5.63184v403.968
c0 13.8242 11.2637 25.0879 25.0879 25.0879h248.063c13.8242 0 25.0879 -11.2637 25.0879 -25.0879v-150.272h112.129c13.8232 0 25.0879 -11.2637 25.0879 -25.0879v-228.607h15.6152zM259.584 110.592v0v7.42383c0 13.8242 -11.2637 25.0879 -25.0879 25.0879h-104.448
c-13.8242 0 -25.0879 -11.2637 -25.0879 -25.0879v-7.42383c0 -13.8242 11.2637 -25.0879 25.0879 -25.0879h104.448c13.8242 0 25.0879 11.2637 25.0879 25.0879zM259.584 219.904v0v7.42383c0 13.8242 -11.2637 25.0879 -25.0879 25.0879h-104.448
c-13.8242 0 -25.0879 -11.2637 -25.0879 -25.0879v-7.42383c0 -13.8242 11.2637 -25.0879 25.0879 -25.0879h104.448c13.8242 0 25.0879 11.2637 25.0879 25.0879zM259.584 337.664v0v7.42383c0 13.8242 -11.2637 25.0879 -25.0879 25.0879h-104.448
c-13.8242 0 -25.0879 -11.2637 -25.0879 -25.0879v-7.42383c0 -13.8242 11.2637 -25.0879 25.0879 -25.0879h104.448c13.8242 0 25.0879 11.2637 25.0879 25.0879zM419.584 65.792v0c11.5195 0 20.7363 9.47168 20.9922 20.9922
c0 11.5195 -9.47266 20.9922 -20.9922 20.9922h-66.8164c-11.5195 0 -20.9912 -9.47266 -20.9912 -20.9922c0 -11.5205 9.47168 -20.9922 20.9912 -20.9922h66.8164zM419.584 150.272v0c11.5195 0 20.7363 9.21582 20.9922 20.9912
c0 11.5205 -9.47266 20.9922 -20.9922 20.9922h-66.8164c-11.5195 0 -20.9912 -9.47168 -20.9912 -20.9922c0 -11.5195 9.47168 -20.9912 20.9912 -20.9912h66.8164z" />
    <glyph glyph-name="copy" unicode="&#xf16e;" 
d="M128 -38.4004h307.2c29.1836 0 51.2002 23.04 51.2002 51.2002v307.2c0 14.0801 -11.5205 25.5996 -25.6006 25.5996v0c-7.16797 0 -12.7998 5.63281 -12.7998 12.8008s5.63184 12.7998 12.7998 12.7998c28.1602 0 51.2002 -23.04 51.2002 -51.2002v-307.2
c0 -46.8477 -32 -76.7998 -76.7998 -76.7998h-307.2c-28.1602 0 -51.2002 23.04 -51.2002 51.2002c0 7.16797 5.63184 12.7998 12.7998 12.7998s12.8008 -5.63184 12.8008 -12.5439c0 -14.3359 11.5195 -25.8564 25.5996 -25.8564zM48.3838 448h338.433
c26.624 0 48.3838 -21.7598 48.3838 -48.3838v-338.433c0 -26.624 -21.5039 -48.3838 -48.3838 -48.3838v0h-338.433c-26.624 0 -48.3838 21.5039 -48.3838 48.3838v0v338.433c0 26.624 21.7598 48.3838 48.3838 48.3838zM49.6641 422.4
c-13.3125 0 -24.0645 -10.752 -24.0645 -24.0645v-335.872c0 -13.3115 10.752 -24.0635 24.0645 -24.0635h335.872c13.3115 0 24.0635 10.752 24.0635 24.0635v335.872c0 13.3125 -10.752 24.0645 -24.0635 24.0645v0h-335.872zM204.8 243.2v89.5996
c0 7.16797 5.63184 12.7998 12.7998 12.7998s12.8008 -5.63184 12.8008 -12.7998v0v-89.5996h89.5996c7.16797 0 12.7998 -5.63184 12.7998 -12.7998s-5.63184 -12.8008 -12.7998 -12.8008v0h-89.5996v-89.5996c0 -7.16797 -5.63281 -12.7998 -12.8008 -12.7998
s-12.7998 5.63184 -12.7998 12.7998v0v89.5996h-89.5996c-7.16797 0 -12.7998 5.63281 -12.7998 12.8008s5.63184 12.7998 12.7998 12.7998v0h89.5996z" />
    <glyph glyph-name="crown" unicode="&#xf175;" 
d="M0 282.624c0 15.6162 12.7998 28.416 28.416 28.416s28.416 -12.7998 28.416 -28.416s-12.7998 -28.416 -28.416 -28.416s-28.416 12.7998 -28.416 28.416zM455.424 282.624c0 15.6162 12.5439 28.416 28.416 28.416c15.6162 0 28.416 -12.7998 28.416 -28.416
s-12.7998 -28.416 -28.416 -28.416s-28.416 12.7998 -28.416 28.416zM227.584 374.528c0 15.6152 12.7998 28.416 28.416 28.416s28.416 -12.8008 28.416 -28.416c0 -15.6162 -12.7998 -28.416 -28.416 -28.416s-28.416 12.7998 -28.416 28.416zM253.952 45.5684v0
c-43.7764 0 -86.2725 -5.37598 -126.72 -15.6162l-73.7285 217.088l136.192 -100.608l66.3037 188.929l66.5596 -189.185l136.192 100.608l-73.9844 -218.112c-41.7275 11.0078 -85.7598 16.8965 -130.815 16.8965z" />
    <glyph glyph-name="del" unicode="&#xf164;" 
d="M114.271 366.881h150.909v-16.2246h-150.909v16.2246zM114.271 315.505h150.909v-16.2246h-150.909v16.2246zM114.271 264.129h262.449v-16.2236h-262.449v16.2236zM114.271 212.753h262.449v-16.2236h-262.449v16.2236zM114.271 161.377h262.449v-16.2236h-262.449
v16.2236zM376.801 103.647c-40.3008 0 -73.0078 -32.708 -73.0078 -73.0078c0 -40.3008 32.707 -73.0078 73.0078 -73.0078c40.2998 0 73.0078 32.707 73.0078 73.0078c0 40.2998 -32.708 73.0078 -73.0078 73.0078v0zM376.801 125.279
c52.2412 0 94.6396 -42.3984 94.6396 -94.6396s-42.3984 -94.6396 -94.6396 -94.6396s-94.6396 42.3984 -94.6396 94.6396s42.3984 94.6396 94.6396 94.6396zM276.861 -17.0859c2.94922 -6.17969 8.78809 -15.5557 13.0332 -20.9287h-213.615
c-19.6982 3.48828 -35.7012 22.5557 -35.7197 42.5605v407.734c3.49902 19.6855 22.5664 35.6768 42.5605 35.6924h235.247l127.088 -127.79v-202.799c-5.53809 4.42285 -15.2295 10.4795 -21.6318 13.5195v168.973h-71.3311c-29.8525 0 -54.0801 24.2275 -54.0801 54.0791
v72.4131h-215.292c-11.9404 0 -21.6318 -9.69141 -21.6318 -21.6318l0.703125 -400.19c0 -11.9404 9.69141 -21.6318 21.6318 -21.6318h193.038zM269.642 58.626c-1.14746 -4.41699 -2.46875 -11.6855 -2.94727 -16.2236h-152.424v16.2236h155.371zM299.629 110.002
c-4.22949 -4.11328 -10.3955 -11.3809 -13.7637 -16.2246h-171.595v16.2246h185.358zM392.105 30.6396l22.9297 -23.0381c1.96191 -1.77734 3.55371 -5.36816 3.55371 -8.01465c0 -5.9707 -4.8457 -10.8164 -10.8164 -10.8164c-2.64648 0 -6.2373 1.5918 -8.01465 3.55371
l-22.957 22.9297l-22.9297 -22.9297c-1.72949 -1.64551 -5.07031 -2.98145 -7.45703 -2.98145c-5.9707 0 -10.8164 4.8457 -10.8164 10.8154c0 2.38184 1.33008 5.71582 2.96875 7.44336l22.957 23.0381l-22.957 22.9297c-1.75 1.75 -3.16992 5.17773 -3.16992 7.65234
c0 5.97363 4.84863 10.8223 10.8223 10.8223c2.47461 0 5.90234 -1.41992 7.65234 -3.16992l22.9297 -22.9297l22.957 22.9297c1.72754 1.63867 5.06152 2.96777 7.44238 2.96777c5.9707 0 10.8164 -4.8457 10.8164 -10.8154c0 -2.3877 -1.33594 -5.72754 -2.98145 -7.45703
z" />
    <glyph glyph-name="delete" unicode="&#xf165;" 
d="M259.864 448h-0.00390625c52.5625 0 95.3311 -41.4717 96.8809 -93.6963h115.166c13.6533 0 24.7324 -11.0078 24.7324 -24.5762c0 -13.5674 -11.0791 -24.5752 -24.7324 -24.5752h-24.7363v-275.2c0 -51.9678 -35.2979 -93.9521 -78.8379 -93.9521h-222.089
c-43.5439 0 -78.8408 42.2402 -78.8408 93.9521v275.456h-27.3105c-13.6533 0 -24.7324 11.0078 -24.7324 24.5762c0 13.5674 11.0791 24.5752 24.7324 24.5752h122.642c1.80176 51.9688 44.5713 93.4404 97.1299 93.4404zM209.107 354.56h101.257
c-1.5459 26.624 -23.4463 47.3604 -50.5 47.3604h-0.203125c-26.1992 0 -48.8467 -21.2168 -50.5537 -47.3604zM146.244 -17.9199h-0.00292969v-0.255859h222.095c15.4561 0 32.4609 19.7119 32.4609 47.8721v275.456h-287.017v-275.2
c0 -28.1602 17.002 -47.8721 32.4639 -47.8721zM184.716 55.4668c-10.7822 0 -19.1689 10.4346 -19.1689 23.4736v133.959c0 13.043 8.625 23.4736 19.1689 23.4736s19.1689 -10.4346 19.1689 -23.4736v-133.959c0 -13.043 -8.625 -23.4736 -19.1689 -23.4736z
M254.204 55.4668c-10.543 0 -19.1689 10.4346 -19.1689 23.4736v133.959c0 13.043 8.62207 23.4736 19.1689 23.4736c10.541 0 19.166 -10.4346 19.166 -23.4736v-133.959c0 -13.043 -8.625 -23.4736 -19.166 -23.4736zM327.284 55.4668
c-10.7832 0 -19.1689 10.4346 -19.1689 23.4736v133.959c0 13.043 8.625 23.4736 19.1689 23.4736s19.1689 -10.4346 19.1689 -23.4736v-133.959c0 -13.043 -8.625 -23.4736 -19.1689 -23.4736z" />
    <glyph glyph-name="delivery" unicode="&#xf1ba;" 
d="M502.568 342.905c6.7373 -9.43164 9.43164 -20.2109 8.08398 -32.3369l-26.9473 -242.526c-2.69434 -22.9053 -22.9053 -40.4209 -44.4629 -40.4209h-320.674c-5.38965 0 -20.2109 0 -20.2109 14.8213c0 10.7783 8.08496 17.5156 21.5586 17.5156h317.979
c2.69531 0 10.7793 4.04199 12.127 12.126l28.2939 231.748l-168.421 -134.737c-1.34668 -1.34766 -4.04199 -2.69434 -5.38965 -2.69434c-1.34668 -1.34766 -2.69434 -1.34766 -4.04199 -1.34766h-2.69434c-1.34766 0 -4.04199 0 -5.38965 1.34766
c0 1.34668 -1.34766 1.34668 -1.34766 1.34668c-1.34668 1.34766 -2.69434 1.34766 -4.04199 2.69531l-1.34668 1.34668l-179.2 138.779c-8.08496 8.08398 -9.43164 21.5576 -1.34766 30.9893c1.34766 2.69531 2.69434 4.04199 5.38965 6.7373
c10.7783 6.73633 17.5156 6.73633 25.5996 6.73633h338.189c10.7793 1.34766 21.5586 -4.04199 28.2949 -12.126zM450.021 320h-297.769l148.21 -114.526zM43.1162 218.947c-12.127 0 -18.8633 6.7373 -18.8633 17.5156c0 6.7373 1.34668 17.5156 18.8633 17.5156h98.3574
c14.8213 0 22.9053 -6.73633 22.9053 -17.5156c0 -10.7783 -8.08398 -17.5156 -21.5576 -17.5156h-99.7051zM303.158 125.979c18.8633 0 21.5576 -10.7783 21.5576 -14.8203c0 -5.38965 -1.34766 -9.43164 -4.04199 -12.127
c-2.69531 -4.04199 -8.08398 -5.38867 -14.8213 -5.38867h-200.758c-18.8633 0 -21.5576 9.43066 -21.5576 16.168s4.04199 16.168 20.21 16.168h199.411zM225.011 155.621l-203.453 1.34766c-18.8633 0 -21.5576 10.7783 -21.5576 16.168
c0 9.43164 9.43164 16.1689 22.9053 16.1689h203.452c14.8213 0 17.5166 -9.43164 17.5166 -16.1689c0 -5.38965 -1.34766 -9.43164 -4.04199 -12.126c-2.69531 -4.04199 -8.08496 -5.38965 -14.8213 -5.38965z" />
    <glyph glyph-name="down" unicode="&#xf190;" 
d="M237.824 21.7598l-193.024 193.024c-8.7041 8.7041 -8.7041 22.0156 0 30.7197s22.0166 8.7041 30.7197 0l160.769 -160.768v343.552c0 11.0078 8.7041 19.7119 19.7119 19.7119s19.7119 -8.7041 19.7119 -19.7119v-343.552l160.769 160.768
c8.70312 8.7041 22.0156 8.7041 30.7197 0s8.7041 -22.0156 0 -30.7197l-193.024 -193.024c-2.81543 -3.32812 -6.39941 -4.86328 -10.2402 -5.63184c-2.30371 -1.02441 -5.11914 -1.53613 -7.93555 -1.53613s-5.63184 0.255859 -7.93555 1.53613
c-3.58398 1.28027 -7.4248 2.81641 -10.2402 5.63184zM492.288 -24.5762c11.0078 0 19.7119 -8.7041 19.7119 -19.7119s-8.7041 -19.7119 -19.7119 -19.7119h-472.576c-11.0078 0 -19.7119 8.7041 -19.7119 19.7119s8.7041 19.7119 19.7119 19.7119h472.576z" />
    <glyph glyph-name="edit" unicode="&#xf161;" 
d="M307.098 396.697v0c-3.58398 -3.58398 -8.39648 -5.63184 -13.4141 -5.63184h-217.703c-20.9912 0 -37.9902 -16.8955 -37.9902 -37.9902v-341.095c0 -20.9912 16.8965 -37.9902 37.9902 -37.9902h341.197c20.9922 0 37.9902 16.8965 37.9902 37.9902v213.812
c0 5.01758 2.04785 9.93262 5.5293 13.4141c11.9814 11.9814 32.3584 3.48242 32.3584 -13.4141v-213.812c0 -41.9834 -33.8945 -75.9805 -75.9805 -75.9805h-341.095c-41.9834 0 -75.9805 33.8945 -75.9805 75.9805v341.095c0 41.9844 33.8945 75.9805 75.9805 75.9805
h217.703c16.8955 0 25.3945 -20.377 13.4141 -32.3584zM160.358 98.5088l32.9727 114.381l82.125 -81.7148zM467.661 322.253v0l-180.839 -179.609l-82.125 81.7148l180.736 179.609zM505.856 390.963v0c8.49902 -8.49902 7.98633 -22.7324 -1.02441 -31.7441
l-24.6787 -24.4736l-82.125 81.7158l24.6787 24.4736c9.11328 9.01074 23.3477 9.52344 31.8467 1.02344z" />
    <glyph glyph-name="edit2" unicode="&#xf162;" 
d="M346.112 402.688c7.67969 -4.86426 9.9834 -15.1045 5.12012 -22.7842l-19.9688 -31.2324c-5.12012 -7.67969 -15.3594 -9.9834 -23.04 -5.12012l-66.5596 42.4961c-7.67969 5.12012 -9.98438 15.3604 -5.12012 23.04l19.9678 31.2324
c5.12012 7.67969 15.3604 9.9834 23.04 5.12012zM311.296 330.752v0c3.32812 -2.04785 4.35254 -6.40039 2.04785 -9.72754c-2.04785 -3.07227 -6.39941 -4.09668 -9.72754 -2.04883l-82.6885 52.7363c-3.07129 2.04785 -4.0957 6.40039 -2.04785 9.72852
c2.04785 3.07129 6.40039 4.0957 9.72852 2.04785zM285.184 316.672c9.98438 -6.39941 13.0566 -19.7119 6.65625 -29.6963l-147.456 -230.399c-1.53613 -2.30371 -3.07227 -3.83984 -4.86426 -5.37598c-0.255859 -0.255859 -0.767578 -0.768555 -1.2793 -1.02441
l-92.9287 -59.9033c-6.65527 -4.6084 -15.6152 1.02344 -14.3359 9.21582l15.3604 110.336c0.255859 2.04785 1.28027 4.0957 2.56055 5.8877c0.255859 0.511719 0.511719 1.28027 1.02344 1.79199l147.456 230.4c6.14355 9.72754 19.4561 12.7998 29.4404 6.39941z
M69.8877 36.0957l32.7686 21.7607l-34.5605 22.0156l-5.8877 -38.9121c1.53613 -0.255859 3.07227 -1.02441 4.35156 -1.79199c1.28027 -0.767578 2.30469 -1.79199 3.32812 -3.07227zM477.44 -64h-442.624c-2.30469 0 -4.09668 1.79199 -4.09668 4.0957v23.5527
c0 2.30371 1.79199 4.0957 4.09668 4.0957h442.624c2.30371 0 4.0957 -1.79199 4.0957 -4.0957v-23.5527c0 -2.30371 -2.04785 -4.0957 -4.0957 -4.0957v0z" />
    <glyph glyph-name="edit3" unicode="&#xf198;" horiz-adv-x="511" 
d="M276.224 93.1836l187.648 187.393c10.2402 -27.6484 16.1279 -57.3438 16.1279 -88.5762c0 -141.312 -114.688 -256 -256 -256c-141.312 0 -256 114.688 -256 256s114.688 256 256 256c64.2559 0 122.624 -23.8076 167.424 -62.7197l-203.52 -203.776zM139.008 44.7998
l121.344 32.5117l-88.3193 88.3203z" />
    <glyph glyph-name="empty" unicode="&#xf163;" 
d="M445.696 254.464v0c-9.47266 17.9199 0 0 0 0s66.3037 -101.888 66.3037 -121.088v-124.416c0 -19.4561 -15.8721 -35.0723 -35.3281 -35.0723h-441.344c-19.4561 0 -35.3281 15.6162 -35.3281 35.0723v124.416c0 19.2002 59.3916 110.848 66.3037 121.856
c7.16797 11.0078 15.6162 16.8955 27.6484 16.8955h324.352c20.9922 0 32.7686 -27.6475 27.3926 -17.6641zM329.728 142.848v0l153.345 -0.255859l-52.2246 94.7197c-7.67969 12.5449 -9.47168 16.3848 -20.2236 16.3848h-305.92
c-13.3125 0.511719 -22.7842 -16.3848 -22.7842 -16.3848l-51.2002 -94.7197h151.809s12.2881 0 16.3838 -11.5195c0 -1.02441 -0.255859 -2.04785 -0.255859 -3.32812c0 -31.7441 25.5996 -57.3438 57.3438 -57.3438s57.3438 25.5996 57.3438 57.3438
c0 1.02344 -0.255859 1.79199 -0.255859 2.81543c1.79199 7.68066 8.95996 12.8008 16.6396 12.2881zM145.408 322.048l-38.9121 36.8643c-4.0957 4.0957 -4.35254 10.4961 -0.255859 14.8477c4.0957 4.09668 10.4961 4.35254 14.8477 0.255859l38.9121 -37.1191
c4.0957 -4.09668 4.35156 -10.4961 0.511719 -14.8486c-4.35156 -3.83984 -10.752 -4.0957 -15.1035 0zM252.928 338.432c-2.04785 1.79199 -3.07129 4.6084 -3.32812 7.4248l-1.2793 53.5039c-0.255859 5.8877 4.35156 10.4961 10.2393 10.752
c5.88867 0.255859 10.4961 -4.35254 10.752 -10.2402l1.28027 -53.7598c0.255859 -5.88867 -4.35156 -10.4961 -10.2402 -10.752c-2.55957 0 -5.37598 1.02344 -7.42383 3.07129zM354.048 323.84c-4.0957 3.83984 -4.35156 10.4961 -0.511719 14.8486v0l37.1201 39.168
c4.0957 4.0957 10.4961 4.35156 14.8477 0.255859c4.0957 -4.09668 4.35254 -10.4961 0.255859 -14.8486l-37.1201 -38.9121c-3.83984 -4.35156 -10.2393 -4.35156 -14.5918 -0.511719v0z" />
    <glyph glyph-name="exchange" unicode="&#xf1b5;" 
d="M214.66 427.072c-0.0498047 -1.97461 -0.669922 -5.07324 -1.38281 -6.91602h1.38281v-484.156l-115.935 132.299c-4.93262 3.93262 -8.93555 12.2432 -8.93555 18.5508c0 13.0957 10.6289 23.7236 23.7236 23.7236c6.15137 0 14.332 -3.84277 18.2588 -8.57715
l41.499 -41.499v359.659h1.38379c-0.702148 1.90625 -1.27148 5.10156 -1.27148 7.13184c0 11.3926 9.24609 20.6396 20.6387 20.6396s20.6387 -9.24707 20.6387 -20.6396c0 -0.0595703 0 -0.15625 -0.000976562 -0.21582zM297.562 -43.25
c0.0449219 1.97559 0.664062 5.07422 1.38379 6.91602h-1.38379v484.156l115.533 -132.299c4.93066 -3.92578 8.93164 -12.2256 8.93164 -18.5273c0 -13.0723 -10.6094 -23.6816 -23.6826 -23.6816c-6.11816 0 -14.2656 3.8125 -18.1846 8.51172l-41.2646 41.499v-359.659
h-1.24512c0.657227 -1.84961 1.19043 -4.94336 1.19043 -6.90625c0 -11.3926 -9.24707 -20.6387 -20.6396 -20.6387c-11.3867 0 -20.6328 9.24121 -20.6387 20.6289z" />
    <glyph glyph-name="experience" unicode="&#xf1a3;" 
d="M483.328 433.664c9.72754 -9.47168 15.1035 -22.2725 15.1035 -35.584v-297.472c0.256836 -17.9199 -8.95996 -34.5605 -24.5752 -43.5205l-193.024 -113.92c-16.3838 -9.72754 -36.8643 -9.72754 -53.5039 0l-189.185 113.92
c-15.3594 8.7041 -24.832 25.0879 -24.5752 42.752v298.24c0.255859 27.6475 23.04 49.9199 50.9434 49.9199h382.208c13.5684 0.255859 26.8799 -4.86426 36.6084 -14.3359zM386.304 255.744v0c5.12012 4.86426 7.16797 12.5439 5.12012 19.2002
c-2.55957 6.65527 -8.44824 11.7754 -15.6162 12.7998l-61.6953 8.95996c-6.14453 1.02344 -11.5205 4.86426 -14.0801 10.4961l-27.3926 55.04c-1.79199 3.83984 -5.12012 6.91211 -8.95996 8.7041c-9.21582 4.0957 -19.9678 0.255859 -24.5762 -8.7041l-27.1357 -54.7842
c-2.55957 -5.63184 -7.93555 -9.72852 -14.0801 -10.4961l-61.6953 -8.95996c-7.16797 -0.767578 -13.0566 -5.63184 -15.3604 -12.2881c-2.30371 -6.91211 -0.511719 -14.3359 4.86426 -19.2002l44.2881 -42.752c4.60742 -4.0957 6.91211 -9.9834 5.8877 -16.1279
l-11.0078 -59.6475c-1.28027 -6.91211 1.53613 -14.0801 7.42383 -18.1768c5.8877 -4.0957 13.5684 -4.60742 19.9678 -1.02344l55.04 28.1602c5.37598 3.32812 12.0322 3.32812 17.4082 0l55.04 -28.1602c6.14355 -3.32812 13.8242 -2.81641 19.7119 1.28027
c5.8877 3.83984 8.7041 11.0078 7.42383 17.9199l-10.4961 59.6475c-0.767578 5.8877 1.28027 11.7764 5.63184 16.1279z" />
    <glyph glyph-name="face1" unicode="&#xf159;" 
d="M256 448c141.312 0 256 -114.688 256 -256s-114.688 -256 -256 -256s-256 114.688 -256 256s114.688 256 256 256zM136.448 277.248c-18.6885 0 -34.0479 -15.1045 -34.0479 -34.0479c0 -18.9443 15.3594 -34.0479 34.0479 -34.0479
c18.6875 0 34.0479 15.3594 34.0479 34.0479c0 18.6875 -15.1045 34.0479 -34.0479 34.0479zM394.496 125.696c3.32812 3.32812 5.63184 7.93555 5.8877 12.7998c0 9.98438 -8.19141 18.1758 -18.1758 18.1758c-8.7041 0 -15.6162 -6.14355 -17.4082 -14.3359
c-18.9434 -41.2158 -60.416 -69.8877 -108.544 -69.8877s-89.3438 28.6719 -108.288 69.6318c-1.79199 8.19238 -8.7041 14.5918 -17.4082 14.5918c-9.9834 0 -18.1758 -8.19141 -18.1758 -18.1758c0 -4.86426 2.04785 -9.47168 5.37598 -12.7998
c24.832 -51.7119 77.3125 -87.2959 138.24 -87.2959c61.1836 0 113.664 35.8398 138.496 87.2959zM375.552 209.152c18.6885 0 34.0479 15.1035 34.0479 34.0479c0 18.9434 -15.3594 34.0479 -34.0479 34.0479c-18.6875 0 -34.0479 -15.3604 -34.0479 -34.0479
c0 -18.6885 15.1045 -34.0479 34.0479 -34.0479z" />
    <glyph glyph-name="face2" unicode="&#xf15a;" 
d="M256 -64c-141.312 0 -256 114.688 -256 256s114.688 256 256 256s256 -114.688 256 -256s-114.688 -256 -256 -256zM166.4 217.6v0c21.1963 0 38.3994 17.2031 38.3994 38.4004s-17.2031 38.4004 -38.3994 38.4004c-21.1973 0 -38.4004 -17.2031 -38.4004 -38.4004
s17.2031 -38.4004 38.4004 -38.4004zM345.6 217.6v0c21.1973 0 38.4004 17.2031 38.4004 38.4004s-17.2031 38.4004 -38.4004 38.4004c-21.1963 0 -38.3994 -17.2031 -38.3994 -38.4004s17.2031 -38.4004 38.3994 -38.4004zM365.568 68.8135
c-27.4209 18.54 -76.5381 33.5869 -109.639 33.5869h-0.338867c-39.373 0 -77.0566 -11.623 -109.057 -33.0244c-2.97754 -2.1123 -5.39453 -6.78906 -5.39453 -10.4404c0 -7.06543 5.73438 -12.7998 12.7998 -12.7998c2.02441 0 5.06055 0.869141 6.77734 1.94141
c23.7021 15.8555 66.082 28.7227 94.5986 28.7227h0.274414c34.6113 0 67.584 -10.2402 95.6416 -29.1836c1.84766 -1.32715 5.19336 -2.40527 7.46875 -2.40527c7.06543 0 12.7998 5.73438 12.7998 12.8008c0 3.87988 -2.6582 8.71973 -5.93262 10.8018h0.000976562z" />
    <glyph glyph-name="face3" unicode="&#xf15b;" 
d="M256 -64c-141.376 0 -256 114.624 -256 256s114.624 256 256 256s256 -114.624 256 -256s-114.624 -256 -256 -256zM138.666 213.334c17.6641 0 32 14.3359 32 32c0 17.6631 -14.3359 32 -32 32c-17.6631 0 -32 -14.3369 -32 -32c0 -17.6641 14.3369 -32 32 -32z
M373.334 213.334c17.6631 0 32 14.3359 32 32c0 17.6631 -14.3369 32 -32 32c-17.6641 0 -32 -14.3369 -32 -32c0 -17.6641 14.3359 -32 32 -32zM192 106.666c-11.7188 -0.0566406 -21.2305 -9.61328 -21.2305 -21.333c0 -11.7188 9.51172 -21.2764 21.2305 -21.333h128
c11.7188 0.0566406 21.2305 9.61426 21.2305 21.333c0 11.7197 -9.51172 21.2764 -21.2305 21.333h-128z" />
    <glyph glyph-name="face4" unicode="&#xf18e;" 
d="M256 448c141.4 0 256 -114.6 256 -256s-114.6 -256 -256 -256s-256 114.6 -256 256s114.6 256 256 256zM256 -32c123.5 0 224 100.5 224 224s-100.5 224 -224 224s-224 -100.5 -224 -224s100.5 -224 224 -224zM160 245.35zM128 245.35c0 17.6641 14.3359 32 32 32
s32 -14.3359 32 -32s-14.3359 -32 -32 -32s-32 14.3359 -32 32zM352 245.35zM320 245.35c0 17.6641 14.3359 32 32 32s32 -14.3359 32 -32s-14.3359 -32 -32 -32s-32 14.3359 -32 32zM256 42.6504c-58.9004 0 -106.65 47.75 -106.65 106.649h213.301
c0 -58.8994 -47.75 -106.649 -106.65 -106.649z" />
    <glyph glyph-name="female" unicode="&#xf179;" 
d="M457.472 393.728v0c33.792 -36.8633 54.5283 -86.2715 54.5283 -140.287c0 -114.688 -93.1836 -207.872 -207.872 -207.872c-46.5918 0 -89.8555 15.3594 -123.904 40.96l-47.8721 -47.8721l73.4727 -73.2158l-29.4404 -29.4404l-73.4717 73.4717l-73.2158 -73.4717
l-29.6963 29.4404l73.4717 73.4717l-73.4717 73.4717l29.4404 29.1846l73.2158 -73.4727l48.1279 47.3604c-26.1123 34.8164 -41.4727 77.8242 -41.4727 124.672c0 114.688 93.1846 207.872 207.872 207.872c54.0166 0 103.425 -20.7363 140.288 -54.2725zM428.288 129.024
v0c30.208 29.9512 48.8955 71.6797 48.8955 117.76s-18.6875 87.5518 -48.8955 117.76c-29.9521 29.9521 -71.6797 48.6396 -117.504 48.6396c-91.9043 0 -166.4 -74.4951 -166.4 -166.399s74.4961 -166.4 166.4 -166.4c45.8242 0 87.2959 18.6885 117.504 48.6406z" />
    <glyph glyph-name="file" unicode="&#xf15c;" 
d="M364.745 109.995c0 -9.94824 -9.10352 -17.9971 -20.3535 -18.0029h-140.073c-11.2559 0 -20.3535 8.01172 -20.3535 17.9971s9.11621 18.0029 20.3535 18.0029h140.073c11.25 0 20.3535 -8.01758 20.3535 -17.9971zM400.894 173.997h-0.0126953
c0 -9.94922 -9.09082 -17.9971 -20.335 -17.9971h-176.228c-11.2559 0 -20.3535 8.04785 -20.3535 17.9971c0 9.94824 9.11621 18.0029 20.3535 18.0029h176.222c11.2617 0 20.3535 -8.05469 20.3535 -18.0029zM328.584 237.998
c0 -9.94824 -9.09082 -17.9971 -20.335 -17.9971h-103.931c-11.2559 0 -20.3535 8.04883 -20.3535 17.9971s9.11621 17.9971 20.3535 17.9971h103.912c11.2627 0 20.3535 -8.04883 20.3535 -17.9971zM431.972 35.9961v252.003h-98.8672
c-22.4805 0 -41.2363 16.0977 -41.2363 36.001v88h-139.512v-376.004h279.615zM359.65 -28v27.9951h-206.733c-22.4805 0 -41.2305 16.1035 -41.2305 36.001v312.002h-31.6338v-375.998h279.598zM332.513 392.8l0.0244141 -68.7998h77.2686zM461.096 329.101
c6.34473 -5.55176 11.501 -16.9004 11.5088 -25.3311v-267.773c0 -19.8975 -17.6084 -36.001 -40.0898 -36.001h-32.1953v-28.1982c0 -19.8721 -17.9043 -35.7725 -40.3857 -35.7725h-279.597c-22.4814 0 -40.9531 15.876 -40.9531 35.7725v375.954
c0 19.8975 18.4717 36.1982 40.9531 36.1982h31.3496v28.001c0 19.8965 18.75 36 41.2305 36h158.749h0.0195312c4.6748 0 12.002 -1.38086 16.3555 -3.08301c0.511719 -0.166992 1.07324 -0.370117 1.58496 -0.617188
c0.844727 -0.351562 1.63477 -0.751953 2.43066 -1.15332c2.47168 -1.31641 6.17969 -3.8916 8.27637 -5.74805z" />
    <glyph glyph-name="file2" unicode="&#xf194;" 
d="M118.752 348.448v-28.4482h158.912v28.4482h-158.912zM118.752 248.896v-28.4482h231.136v28.4482h-231.136zM118.752 163.552v-28.4482h231.136v28.4482h-231.136zM118.752 49.792v-28.4482h231.136v28.4482h-231.136zM46.5596 448h418.912v-512h-418.912v512z" />
    <glyph glyph-name="fire" unicode="&#xf15d;" 
d="M256 448c141.312 0 256 -114.688 256 -256s-114.688 -256 -256 -256s-256 114.688 -256 256s114.688 256 256 256zM247.04 56.832c54.0156 0 96.2559 42.2402 96.5117 96.2559c0 44.2881 -13.5674 88.5762 -36.6074 119.296
c7.67969 -23.04 3.83984 -59.6475 -23.04 -80.8955c15.3594 54.0156 -36.6084 125.184 -54.0166 132.863c0 0 -2.04785 0 -2.04785 2.04883c9.72852 -88.5762 -71.168 -103.937 -77.0557 -173.312c-3.83984 -54.0156 42.2402 -96.2559 96.2559 -96.2559z" />
    <glyph glyph-name="fire2" unicode="&#xf18f;" 
d="M158.72 -62.208v0v0c-108.544 60.9277 -135.936 118.016 -120.319 196.864c11.7754 59.1357 57.0879 106.496 61.1836 163.584c15.6162 -29.4404 17.6641 -51.2002 19.4561 -84.7363c53.248 67.0723 110.336 153.6 98.5596 234.496c0 0 100.608 -31.4883 142.08 -187.392
c23.5527 21.7598 21.5039 65.0234 9.72852 92.6719c35.584 -27.6484 242.432 -260.097 -31.4883 -415.744c-17.6641 -5.8877 -29.4395 12.0322 -17.6641 21.7598c100.353 98.5605 13.8242 214.784 -86.7842 268.032c7.93652 -27.6484 25.6006 -86.7842 -13.8232 -132.096
c7.93555 45.3115 -31.4883 74.752 -31.4883 74.752c0 -59.1367 -31.4883 -74.752 -43.2637 -114.177c-11.7764 -35.3271 3.83984 -74.752 35.584 -96.2559c9.72754 -7.93555 1.79199 -29.6953 -21.7607 -21.7598z" />
    <glyph glyph-name="flag" unicode="&#xf15e;" 
d="M353.735 277.557c0 0 79.665 -43.9756 156.566 -169.383h-9.50781c-19.499 21.04 -64.7598 35.7842 -117.473 35.7842c-36.6201 0 -69 -7.41992 -92.2891 -18.792c-18.3418 -28.7178 -70.0273 -49.5977 -131.703 -49.5977c-23.0645 0 -44.8115 2.8916 -63.957 8.03125
l-1.18848 134.016s-1.66992 0.321289 0.996094 0.739258v167.777c16.3027 -4.18555 43.1934 -7.58203 60.0254 -7.58203c0.163086 0 0.427734 0 0.589844 0.000976562c49.2764 0 91.5186 13.3633 111.788 32.6045h0.320312c21.4268 21.7793 64.792 36.8447 115.386 36.8447
c50.5928 0 93.9912 -15.0654 115.385 -36.8125h13.3945v-0.610352c-18.2773 -3.88672 -123.608 -30.3242 -158.333 -133.021zM0 444.852h64.1494v-496.649h-64.1494v496.649z" />
    <glyph glyph-name="flash" unicode="&#xf15f;" 
d="M256 448c140.8 0 256 -115.2 256 -256s-115.2 -256 -256 -256s-256 115.2 -256 256s115.2 256 256 256zM330.24 345.6l-189.44 -161.279l87.04 -14.0801l-57.5996 -131.84l200.96 160l-85.7598 29.4395z" />
    <glyph glyph-name="flash2" unicode="&#xf160;" 
d="M213.505 -62.9756c-1.42285 0 -2.47461 0.369141 -3.18555 1.05176c-4.97852 1.42285 -6.74219 4.2666 -5.31934 8.5332l33.0234 194.559h-143.871c-3.52637 0 -6.03027 1.42285 -7.45215 4.2666c-2.13281 2.78809 -1.76367 5.97363 1.08105 9.5293l221.638 289.221
c2.84375 4.2666 6.0293 4.9209 9.58496 2.13281c3.55566 -0.710938 5.31934 -3.58398 5.31934 -8.5332l-33.0234 -194.559h126.804c3.55566 0 6.03027 -1.42188 7.45312 -4.2666c0.710938 -2.84375 0.710938 -6.00098 0 -9.55664l-204.543 -289.192
c-1.6709 -1.75879 -4.99609 -3.18652 -7.42285 -3.18652c-0.015625 0 -0.0419922 0 -0.0576172 0.000976562h-0.0283203z" />
    <glyph glyph-name="follow" unicode="&#xf19b;" 
d="M190.464 -64.2559l-127.231 158.976s-6.40039 59.3926 50.9434 34.3047c33.0244 -14.8486 44.7998 -46.0801 44.7998 -46.0801l1.28027 241.92s34.0479 50.9434 64 0l0.511719 -153.088s36.8643 50.1758 80.3848 -3.58398c0 0 32.5117 54.7832 78.3359 -2.56055
c0 0 32.5117 63.4883 65.0234 -5.37598v-192.256s-1.79199 -15.1035 -28.416 -32l-229.632 -0.255859v0zM191.488 447.744v0c70.9121 0 128.512 -57.6006 128.256 -128.512c0 -47.6162 -26.1123 -88.5762 -64.5117 -110.849v40.7041
c19.1992 17.6641 31.4873 42.4961 31.4873 70.6562c0 52.9922 -43.0078 96 -96 96s-96 -43.0078 -96 -96c0 -28.6719 12.7998 -54.0166 32.7686 -71.6797v-39.6807c-38.4004 22.2725 -64.5127 63.2324 -64.5127 110.849c0 70.9111 57.6006 128.512 128.513 128.512z" />
    <glyph glyph-name="follow2" unicode="&#xf1a8;" 
d="M482.357 30.3154h-72.7578v-75.4521c0 -10.7793 -8.08398 -16.1689 -16.168 -16.1689s-16.1689 8.08496 -16.1689 16.1689v75.4521h-72.7578c-8.08398 0 -16.168 8.08496 -16.168 16.1689s8.08398 16.168 16.168 16.168h72.7578v75.4531
c0 10.7783 8.08496 16.168 16.1689 16.168s16.168 -8.08398 16.168 -16.168v-75.4531h72.7578c8.08496 0 16.1689 -8.08398 16.1689 -16.168s-8.08398 -16.1689 -16.1689 -16.1689zM239.832 146.189c-83.5371 0 -191.327 -83.5371 -191.327 -183.242
c0 -10.7793 -8.08398 -16.168 -16.168 -16.168c-5.38965 0 -8.08398 2.69434 -10.7793 5.38867c-5.38965 2.69531 -8.08398 5.38965 -8.08398 10.7793c0 80.8418 67.3682 175.158 158.989 204.8c-45.8105 26.9473 -70.0625 72.7578 -70.0625 129.348
c2.69434 83.5371 67.3682 150.905 148.21 150.905s145.516 -67.3682 145.516 -150.905s-64.6738 -150.905 -145.516 -150.905h-10.7783zM250.61 412.969c-61.9785 0 -113.179 -51.2002 -113.179 -115.874s51.2002 -115.874 113.179 -115.874
c61.9795 0 113.179 51.2002 113.179 115.874c0 61.9785 -51.1992 115.874 -113.179 115.874z" />
    <glyph glyph-name="followed" unicode="&#xf1a9;" 
d="M368.49 137.51v0v0c3.9873 -2.68262 6.59766 -7.21387 6.59766 -12.3965c0 -8.19141 -6.66992 -14.8594 -14.8594 -14.8594c-3.26367 0 -6.27148 1.08594 -8.73535 2.89941l-0.0361328 -0.0732422c-31.3867 21.166 -69.1885 33.5264 -109.889 33.5264
c-108.618 0 -196.689 -88.0713 -196.689 -196.689c-0.506836 -7.75684 -7.03125 -13.917 -14.8955 -13.917c-7.90039 0 -14.2793 6.16016 -14.7881 13.917c-0.0361328 0 -0.0722656 1.19336 -0.0722656 1.30469c0.581055 100.536 66.6143 185.489 157.62 214.52
c-47.9502 24.9004 -80.7139 74.9512 -80.7139 132.722c0 82.5977 66.9404 149.537 149.539 149.537c82.5967 0 149.537 -66.9395 149.537 -149.537c0 -57.7344 -32.7637 -107.821 -80.7129 -132.722c20.8398 -6.62988 40.376 -16.2002 58.0977 -28.2314zM121.932 298.463v0
c0 -66.0713 53.5654 -119.637 119.637 -119.637c66.0693 0 119.639 53.5654 119.639 119.637c0 66.0693 -53.5693 119.639 -119.639 119.639c-66.0713 0 -119.637 -53.5693 -119.637 -119.639zM491.427 34.3252v0v0l-93.1465 -93.0703l1.16211 1.16211
c-3.40625 -3.44629 -7.90332 -5.18555 -13.4473 -5.29297c-5.50781 -0.109375 -10.0039 1.55957 -13.4463 5.00195l-39.793 40.083c-3.44531 3.44141 -5.1123 7.50195 -5.00195 12.1777c0.0722656 4.6748 1.84766 8.73438 5.29004 12.1758
c3.44531 3.44336 7.64844 5.11035 12.6143 5.00293c4.96289 -0.109375 9.16895 -1.84863 12.6113 -5.29297l27.7617 -27.4717l80.751 80.749c3.44238 3.44336 7.64746 5.18262 12.6113 5.29199c4.96582 0.108398 9.16895 -1.55859 12.6143 -5.00098
c3.44238 -3.44238 5.03516 -7.68457 4.85547 -12.7588c-0.182617 -5.07422 -1.99414 -9.3125 -5.43652 -12.7568zM491.427 34.3252z" />
    <glyph glyph-name="font" unicode="&#xf17c;" 
d="M496.896 39.9355h-481.793c-8.44727 0 -15.1035 6.65625 -15.1035 15.1045v273.92c0 8.44824 6.65625 15.1045 15.1035 15.1045h481.793c8.44727 0 15.1035 -6.65625 15.1035 -15.1045v-273.664c0 -8.44824 -6.91211 -15.3604 -15.1035 -15.3604zM30.208 70.1436h451.584
v243.713h-451.584v-243.713v0zM176.64 201.472c-8.44727 0 -15.1035 6.65625 -15.1035 15.1045v4.0957h-74.4961v-4.0957c0 -8.44824 -6.65625 -15.1045 -15.1045 -15.1045c-8.44727 0 -15.1035 6.65625 -15.1035 15.1045v19.2002
c0 8.44727 6.65625 15.1035 15.1035 15.1035h104.704c8.44824 0 15.1045 -6.65625 15.1045 -15.1035v-19.2002c0 -8.7041 -6.65625 -15.1045 -15.1045 -15.1045zM157.184 133.888h-65.5352c-8.44824 0 -15.1045 6.65625 -15.1045 15.1045s6.65625 15.1035 15.1045 15.1035
h65.5352c8.44824 0 15.1045 -6.65527 15.1045 -15.1035s-6.65625 -15.1045 -15.1045 -15.1045zM124.416 133.888c-8.44824 0 -15.1045 6.65625 -15.1045 15.1045v86.7842c0 8.44727 6.65625 15.1035 15.1045 15.1035s15.1035 -6.65625 15.1035 -15.1035v-86.7842
c0 -8.44824 -6.91113 -15.1045 -15.1035 -15.1045zM439.808 133.888h-211.456c-8.44727 0 -15.1035 6.65625 -15.1035 15.1045s6.65625 15.1035 15.1035 15.1035h211.713c8.44727 0 15.1035 -6.65527 15.1035 -15.1035s-6.91211 -15.1045 -15.3604 -15.1045z" />
    <glyph glyph-name="forbid" unicode="&#xf188;" 
d="M475.392 192c0 121.088 -98.3037 219.392 -219.392 219.392s-219.392 -98.3037 -219.392 -219.392s98.3037 -219.392 219.392 -219.392s219.392 98.3037 219.392 219.392zM512 192c0 -141.312 -114.688 -256 -256 -256s-256 114.688 -256 256s114.688 256 256 256
s256 -114.688 256 -256zM96.2559 344.064c-6.91211 7.42383 -6.65625 18.9434 0.768555 25.8555c7.42383 6.91211 18.9434 6.65625 25.8555 -0.767578l310.784 -329.217c6.91211 -7.42383 6.65625 -18.9434 -0.767578 -25.8555
c-7.4248 -6.91211 -18.9443 -6.65625 -25.8564 0.767578v0z" />
    <glyph glyph-name="git-fork" unicode="&#xf1b4;" 
d="M168.141 0.716797c0 8.80664 -3.68652 16.3838 -10.957 22.5283c-7.37207 6.24609 -16.1787 9.31836 -26.624 9.31836c-10.4443 0 -19.3535 -3.07227 -26.624 -9.31836c-7.37207 -6.24707 -10.9561 -13.7217 -10.9561 -22.5283s3.68652 -16.3838 10.9561 -22.5283
c7.37305 -6.24609 16.1797 -9.31836 26.624 -9.31836c10.4453 0 19.3545 3.07227 26.624 9.31836c7.27051 6.14453 10.957 13.7217 10.957 22.5283zM168.141 383.283c0 8.80664 -3.68652 16.3838 -10.957 22.5283c-7.37207 6.24609 -16.1787 9.31836 -26.624 9.31836
c-10.4443 0 -19.3535 -3.07227 -26.624 -9.31836c-7.37207 -6.24707 -10.9561 -13.7217 -10.9561 -22.5283s3.68652 -16.3838 10.9561 -22.5283c7.37305 -6.24609 16.1797 -9.31836 26.624 -9.31836c10.4453 0 19.3545 3.07227 26.624 9.31836
c7.27051 6.14453 10.957 13.7217 10.957 22.5283zM419.123 340.787c0 8.80664 -3.68652 16.3838 -10.957 22.5283c-7.37207 6.24609 -16.1787 9.31836 -26.624 9.31836c-10.4443 0 -19.3535 -3.07227 -26.624 -9.31836
c-7.37207 -6.24707 -10.9561 -13.7217 -10.9561 -22.5283s3.68652 -16.3838 10.9561 -22.5283c7.37305 -6.24609 16.1797 -9.31836 26.624 -9.31836c10.4453 0 19.3545 3.07227 26.624 9.31836c7.27051 6.14453 10.957 13.6191 10.957 22.5283zM456.807 340.787
c0 -11.4688 -3.37988 -22.2207 -10.1377 -32.0508c-6.75879 -9.83105 -15.9746 -17.5107 -27.4434 -23.04c-0.511719 -63.4883 -30.1055 -109.363 -88.6787 -137.421c-17.8174 -8.39746 -44.3389 -17.4082 -79.5645 -26.9316
c-33.4844 -8.80566 -55.6035 -16.6914 -66.458 -23.5518s-16.2812 -17.9199 -16.2812 -33.1777v-8.60156c11.4688 -5.5293 20.6846 -13.21 27.4434 -23.04c6.75781 -9.83008 10.1377 -20.582 10.1377 -32.0508c0 -17.7158 -7.37305 -32.7686 -22.0166 -45.1582
c-14.6426 -12.3906 -32.46 -18.6377 -53.3496 -18.6377s-38.6055 6.14453 -53.3506 18.6377c-14.6436 12.3896 -22.0166 27.4424 -22.0166 45.1582c0 11.4688 3.37988 22.2207 10.1377 32.0508c6.75879 9.83008 15.9746 17.5107 27.4434 23.04v272.18
c-11.4688 5.5293 -20.6846 13.209 -27.4434 23.04c-6.75781 9.83008 -10.1377 20.582 -10.1377 32.0508c0 17.7148 7.37305 32.7676 22.0166 45.1582c14.6426 12.3906 32.5625 18.5342 53.4521 18.6367c20.8896 0 38.6055 -6.14355 53.3506 -18.6367
c14.7461 -12.4922 21.9141 -27.5449 21.9141 -45.1582c0 -11.4688 -3.37988 -22.2207 -10.1377 -32.0508c-6.75879 -9.83105 -15.9746 -17.5107 -27.4434 -23.04v-165.069c14.1309 5.73438 34.2012 12.083 60.416 18.9443c14.4385 3.78906 25.8047 7.06543 34.3037 9.72754
c8.49902 2.76465 17.7158 6.14453 27.6484 10.2402s17.6123 8.49902 23.1426 13.1074c5.5293 4.60742 10.752 10.2402 15.8721 16.8955c5.11914 6.65625 8.7041 14.3359 10.9561 23.04c2.25293 8.80664 3.37988 18.8418 3.27734 30.4131
c-11.4688 5.5293 -20.6846 13.21 -27.4434 23.04s-10.1377 20.582 -10.1377 32.0508c0 17.7158 7.37305 32.7686 22.0156 45.1592c14.6436 12.3896 32.4609 18.6367 53.3506 18.6367s38.6055 -6.14453 53.3506 -18.6367c14.4385 -12.2881 21.8115 -27.3408 21.8115 -44.9541
v0v0z" />
    <glyph glyph-name="hat" unicode="&#xf176;" 
d="M501.504 276.736l-225.28 -82.6885c-14.0801 -5.37598 -11.0078 -5.37598 -25.0879 0l-118.016 42.752l131.84 56.3203c5.8877 2.55957 8.7041 9.47168 6.40039 15.6162l-0.256836 0.511719c-2.30371 6.14355 -8.95996 9.21582 -14.5918 6.65625l-156.16 -67.0723
c-1.02344 -0.255859 -1.2793 -0.767578 -1.53516 -1.28027c-20.4805 -17.1514 -26.624 -43.2637 -27.3926 -72.7041c6.91211 -4.60742 11.5205 -13.0557 11.5205 -22.5273c0 -8.7041 -4.09668 -16.6406 -10.2402 -21.5039
c3.58398 -54.7842 8.95996 -110.08 -36.0957 -130.816c-12.2881 4.35156 -20.7363 8.95996 -36.6084 22.0156c32.2559 41.2168 43.2637 76.0322 47.1035 106.496c-8.19141 4.35254 -13.5674 13.3125 -13.5674 23.5527c0 11.2637 6.65625 20.9912 15.8721 24.832
c0.255859 30.207 1.79199 56.0635 25.8555 80.8955l-54.2715 19.7119c-14.0801 5.37598 -14.3359 14.3359 -0.255859 19.7119l228.352 82.6885c14.0801 5.37598 11.0078 5.37598 25.0879 0l226.816 -83.4561c14.5918 -5.37598 14.5918 -14.3359 0.511719 -19.7119v0z
M422.656 130.304c0 -7.42383 -5.37598 -14.8477 -12.0322 -20.9922c-92.416 -53.5039 -207.36 -54.0156 -290.304 -4.86328c-4.6084 1.79199 -7.93652 7.93555 -9.98438 14.0801c5.8877 7.16797 9.21582 16.6396 9.21582 27.1357
c0 11.7764 -4.0957 22.2715 -11.5195 29.4395v38.6562l142.848 -51.7119c14.0801 -5.37598 11.2637 -5.63184 25.3438 0l146.688 54.0166v-85.7607h-0.255859z" />
    <glyph glyph-name="hourglass" unicode="&#xf1ad;" 
d="M215.434 201.964c-9.57031 12.7607 -25.5205 25.5215 -38.2812 35.0918c-41.4727 35.1318 -79.7539 70.2227 -86.1738 172.348h-12.7217c-9.57031 0 -19.1406 9.57031 -19.1406 19.1406s9.57031 19.1406 19.1406 19.1406h354.068
c9.57031 0 19.1406 -9.57031 19.1406 -19.1406s-9.57031 -19.1406 -19.1406 -19.1406h-12.7607c-3.15137 -102.125 -44.6621 -134.026 -86.1348 -172.348c-12.7598 -9.57031 -25.5205 -22.3311 -38.2812 -35.0918c12.7607 -12.7598 25.5215 -25.5205 38.2812 -35.0908
c41.4727 -35.1318 82.9443 -70.2236 86.1348 -172.348h12.7607c9.57031 0 19.1406 -9.57031 19.1406 -19.1406c0 -9.61035 -9.57031 -19.1807 -19.1406 -19.1807h-354.068c-9.57031 0 -19.1406 9.57031 -19.1406 19.1807c0 9.57031 9.57031 19.1406 19.1406 19.1406h12.7607
c3.15137 102.124 44.6621 134.026 86.1348 172.348c12.7607 9.57031 28.7109 22.3311 38.2812 35.0518v0.0390625zM129.3 -5.47461h15.9502l102.085 102.124c3.15137 3.15137 12.7217 3.15137 15.9121 0l102.085 -102.124h15.9502
c-3.15039 86.1738 -38.2812 111.695 -73.373 143.597c-15.9512 15.9502 -35.0527 28.751 -51.0029 51.082c-19.1416 -22.3311 -35.0918 -35.1318 -54.2334 -51.082c-35.0918 -31.9014 -70.1826 -57.4229 -73.373 -143.597zM161.201 310.469h194.561
c15.9502 22.3311 28.75 51.082 28.75 98.9346h-255.212c3.15039 -47.8525 12.7607 -76.6035 31.9014 -98.9346z" />
    <glyph glyph-name="hui" unicode="&#xf14d;" 
d="M0 182.016v0v1.28027c0 0.768555 0 2.04785 0.255859 3.32812c0.256836 0.255859 0.256836 0.767578 0.256836 1.02441c0 0.511719 0 1.02344 0.255859 1.79199v1.2793l0.511719 1.53613c2.04785 8.19238 6.14355 15.8721 12.2881 21.7598v0l230.656 220.673
c4.86328 4.86328 10.752 8.70312 17.1514 10.752v2.55957h220.16v-2.55957c13.0557 -4.6084 23.5518 -14.8486 27.9043 -27.9043h2.55957v-220.16h-2.81543c-0.768555 -2.30371 -1.79199 -4.86426 -3.07227 -6.91211l1.53613 -1.79199l-262.145 -241.152l-11.5195 -10.4951
l-1.79199 2.30371c-2.56055 -1.02441 -5.37598 -1.79199 -8.19238 -2.30371h-0.255859c-0.511719 -0.256836 -0.767578 -0.256836 -1.02344 -0.256836h-0.256836c-0.511719 -0.255859 -1.53516 -0.255859 -2.55957 -0.511719
c-1.53613 -0.255859 -2.81641 -0.255859 -4.35156 -0.255859c-9.2168 0 -17.6641 2.81641 -25.0889 7.67969l-1.53516 -0.767578l-178.688 210.176l-6.40039 7.67969l0.768555 1.28027c-2.81641 6.14453 -4.6084 13.0557 -4.6084 19.9678zM32.7686 171.776v0
l3.83984 -4.35254l159.231 -187.392v0l7.68066 -8.95996c3.07129 -3.58398 7.42383 -5.63184 12.0322 -5.63184h1.53516v0h0.512695h0.511719h0.767578c2.81641 0.511719 5.12012 1.79199 7.16797 3.58398l1.79199 1.53516l239.104 220.16l-0.255859 0.255859
l11.0078 9.72852c3.32812 3.07227 5.37598 7.16797 5.37598 11.5195l0.255859 7.93652v169.216v0v14.3359c0 8.7041 -6.91211 15.6162 -15.6162 15.6162h-14.3359v0h-162.304v0h-14.3359h-0.511719c-4.09668 0 -7.93652 -1.53613 -10.752 -4.6084l-0.256836 -0.255859
l-231.168 -221.184c-2.30371 -2.04785 -3.58398 -4.6084 -4.35156 -7.42383l-0.255859 -0.768555c-0.255859 -0.255859 -0.255859 -1.02344 -0.255859 -1.28027v-0.511719v-1.02344v-0.768555v0c0 -4.35156 1.79199 -7.67969 3.58398 -9.72754zM217.856 170.496
l-37.6318 37.6318c-5.37598 5.37598 -5.37598 14.0801 0 19.4561l0.255859 0.255859c5.37598 5.37598 14.0801 5.37598 19.4561 0l37.6318 -37.6318l26.624 26.624l-37.8877 37.6318c-5.37598 5.37598 -5.37598 14.0801 0 19.4561s14.0801 5.37598 19.4561 0
l30.7197 -30.7197l29.1836 112.384c3.07227 11.7764 17.6641 15.6162 26.1123 7.16797v0c4.0957 -4.0957 5.63184 -9.98438 3.83984 -15.6162l-22.0156 -73.7275c-6.65625 -22.2725 -11.7764 -36.6084 -14.8486 -43.2646l0.512695 -0.511719
c16.1279 6.14453 55.04 18.4326 116.991 36.6084c5.37598 1.53613 11.5205 0 15.3604 -3.83984l1.53613 -1.53613c8.44824 -8.44824 4.6084 -23.04 -6.91211 -26.1123l-112.128 -29.6963l32 -32c5.37598 -5.37598 5.37598 -14.0801 0 -19.4561v0
c-5.37598 -5.37598 -14.0801 -5.37598 -19.4561 0l-39.168 39.168l-26.624 -26.624l39.168 -39.168c5.37598 -5.37598 5.37598 -14.0791 0 -19.4561l-0.255859 -0.255859c-5.37598 -5.37598 -14.0801 -5.37598 -19.4561 0l-39.168 39.168l-52.2236 -52.2236
c-5.37598 -5.37598 -14.0801 -5.37598 -19.4561 0l-4.86426 4.86426c-5.37598 5.37598 -5.37598 14.0801 0 19.4561l53.248 51.9678v0z" />
    <glyph glyph-name="image" unicode="&#xf19e;" 
d="M438.857 405.333c40.3965 0 73.1426 -32.7461 73.1426 -73.1426v-280.381c0 -40.3965 -32.7461 -73.1426 -73.1426 -73.1426h-365.715c-40.3965 0 -73.1426 32.7461 -73.1426 73.1426v280.381c0 40.3965 32.7461 73.1426 73.1426 73.1426h365.715zM475.429 51.8096
v280.381c0 20.165 -16.4062 36.5713 -36.5713 36.5713h-365.715c-20.165 0 -36.5713 -16.4062 -36.5713 -36.5713v-280.381c0 -20.165 16.4062 -36.5713 36.5713 -36.5713h365.715c20.165 0 36.5713 16.4062 36.5713 36.5713zM129.523 216.381
c-30.251 0 -54.8574 24.6064 -54.8574 54.8574c0 30.248 24.6064 54.8545 54.8574 54.8545c30.25 0 54.8584 -24.6064 54.8584 -54.8545c0 -30.251 -24.6104 -54.8574 -54.8584 -54.8574zM129.523 289.521c-10.083 0 -18.2861 -8.20312 -18.2861 -18.2832
c0 -10.083 8.20312 -18.2852 18.2861 -18.2852c10.082 0 18.2852 8.20215 18.2852 18.2852c0 10.0801 -8.20117 18.2832 -18.2852 18.2832zM344.697 243.345l85.334 -102.101c6.47656 -7.74805 5.44824 -19.2842 -2.30371 -25.7607
c-7.75684 -6.47461 -19.2793 -5.44141 -25.7559 2.31152l-72.0908 86.249l-77.3027 -82.4668c-6.88281 -7.3457 -18.4355 -7.73633 -25.8154 -0.855469l-33.0088 30.8086l-83.5098 -80.8564c-3.55273 -3.44141 -8.13672 -5.1543 -12.7207 -5.1543
c-4.77832 0 -9.54785 1.85938 -13.1357 5.57324c-7.02344 7.25 -6.84082 18.8213 0.416016 25.8438l96 92.9531c7.00195 6.7998 18.0781 6.89551 25.1963 0.241211l32.375 -30.2148l78.9521 84.2158c3.57617 3.80957 8.63184 6.22559 13.8574 5.76172
c5.23926 -0.144531 10.1543 -2.53711 13.5127 -6.54883z" />
    <glyph glyph-name="import" unicode="&#xf19a;" 
d="M475.904 -23.04v0v197.888h40.96v-208.128c0 -16.8955 -13.8242 -30.7197 -30.7207 -30.7197h-450.56c-16.8955 0 -30.7197 13.8242 -30.7197 30.7197v450.561c0 16.8955 13.8242 30.7197 30.7197 30.7197h201.216v-40.96h-190.976v-430.08h430.08zM496.384 40.96
c-11.2637 0 -20.4795 9.21582 -20.4795 20.4805v120.319c0 11.2646 9.21582 20.4805 20.4795 20.4805c11.2646 0 20.4805 -9.21582 20.4805 -20.4805v-120.319c0 -11.2646 -8.95996 -20.4805 -20.4805 -20.4805v0zM250.624 407.04h-53.7598
c-11.2646 0 -20.4805 9.21582 -20.4805 20.4795c0 11.2646 9.21582 20.4805 20.4805 20.4805h53.7598c11.2637 0 20.4795 -9.21582 20.4795 -20.4805c0 -11.2637 -8.95996 -20.4795 -20.4795 -20.4795zM360.96 138.752h-132.096
c-11.5205 0 -20.9922 9.47168 -20.9922 20.9922c0 11.5195 9.47168 20.9922 20.9922 20.9922h132.096c11.5205 0 20.9922 -9.47266 20.9922 -20.9922c0 -11.5205 -9.21582 -20.9922 -20.9922 -20.9922zM207.872 159.744v132.096c0 11.5205 9.47168 20.9922 20.9922 20.9922
c11.5195 0 20.9922 -9.47168 20.9922 -20.9922v-132.096c0 -11.5205 -9.47266 -20.9922 -20.9922 -20.9922c-11.5205 0 -20.9922 9.47168 -20.9922 20.9922zM214.272 144.896v0c-8.19238 8.19141 -8.19238 20.9912 -0.256836 28.9277l268.032 268.288
c7.93652 7.93555 20.7363 7.93555 28.6719 0l0.255859 -0.255859c7.93652 -7.93652 7.93652 -20.7363 0 -28.6729l-268.287 -268.287c-7.93652 -7.93652 -20.7363 -7.93652 -28.416 0z" />
    <glyph glyph-name="interview-filter" unicode="&#xf1bf;" 
d="M214.712 188.812c-71.457 0 -129.595 58.1367 -129.595 129.594c0 71.458 58.1377 129.595 129.595 129.595s129.594 -58.1367 129.594 -129.595c0 -71.457 -58.1367 -129.594 -129.594 -129.594zM214.712 426.722c-59.748 0 -108.316 -48.5918 -108.316 -108.316
c0 -59.7236 48.5684 -108.316 108.316 -108.316s108.316 48.5928 108.316 108.316c0 59.7246 -48.5928 108.316 -108.316 108.316zM299.379 24.0781h-265.65l-1.66016 8.62695c-0.145508 0.753906 -3.51367 18.8457 2.1709 44.2822
c5.15527 23.1016 19.0645 57.3105 56.0879 89.1113c1.65137 1.41797 4.75781 2.56934 6.93359 2.56934c5.87305 0 10.6396 -4.7666 10.6396 -10.6396c0 -2.69727 -1.66016 -6.3125 -3.70605 -8.07031c-25.8311 -22.1895 -42.3066 -47.9541 -48.9326 -76.5635
c-1.66016 -7.02441 -3.00781 -18.584 -3.00781 -25.8018c0 -0.615234 0.0107422 -1.61523 0.0224609 -2.23047h247.103c5.87305 0 10.6396 -4.7666 10.6396 -10.6387c0 -5.87305 -4.7666 -10.6396 -10.6396 -10.6396v-0.00585938zM417.654 -64v0
c-5.87305 0 -10.6396 4.7666 -10.6396 10.6387v138.422c0 3.80566 1.31934 6.82129 9.58789 18.2383c4.08496 5.6416 9.72656 13.1377 16.8516 22.2812c11.3867 14.6689 22.9189 29.0225 24.2021 30.6152c1.15625 1.4541 2.09473 4.14258 2.09473 6
c0 1.2998 -0.486328 3.29102 -1.08594 4.44434c-1.67188 3.3623 -5.75098 6.95508 -12.1582 6.95508h-124.306c-5.87207 0 -10.6387 4.7666 -10.6387 10.6387c0 5.87305 4.7666 10.6387 10.6387 10.6387h124.281c13.5146 0 25.4785 -7.18555 31.2354 -18.7549
c5.38672 -10.833 4.20117 -23.1016 -3.17285 -32.8652l-0.201172 -0.254883c-19.7275 -24.5 -41.4365 -52.5684 -46.0508 -60.1855v-136.173c0 -5.87207 -4.7666 -10.6387 -10.6387 -10.6387zM466.058 149.647zM349.966 -27.8398v0
c-5.87305 0 -10.6387 4.7666 -10.6387 10.6387v98.9668l-42.1064 61.6934c-7.22168 9.72754 -8.34668 21.8857 -3.00293 32.6406c5.75098 11.5508 17.7217 18.7549 31.2363 18.7549c5.87207 0 10.6387 -4.7666 10.6387 -10.6387
c0 -5.87305 -4.7666 -10.6396 -10.6387 -10.6396c-6.43262 0 -10.5117 -3.59277 -12.1592 -6.9541c-0.599609 -1.15527 -1.08691 -3.14844 -1.08691 -4.4502c0 -1.89844 0.974609 -4.63281 2.1748 -6.10449c0.105469 -0.13737 0.207031 -0.277018 0.304688 -0.418945
l44.1182 -64.5996c1.00684 -1.49023 1.82324 -4.1582 1.82324 -5.95703v-0.0429688v-102.256c-0.00292969 -5.86914 -4.76953 -10.6328 -10.6387 -10.6328h-0.0244141z" />
    <glyph glyph-name="invalid" unicode="&#xf14e;" 
d="M386.048 -31.2324c-69.6318 0 -125.952 58.3682 -125.952 130.305c0 71.9355 56.3203 130.304 125.952 130.304s125.952 -58.3682 125.952 -130.304c-0.255859 -71.9365 -56.5762 -130.305 -125.952 -130.305zM296.448 99.3281
c0 -18.6885 5.37598 -35.8398 14.5918 -50.4316l123.648 128c-14.0801 9.47168 -30.7207 15.1035 -48.6406 15.1035c-49.4082 0 -89.5996 -41.4717 -89.5996 -92.6719v0zM461.056 149.248l-123.392 -127.744c13.8242 -9.21582 30.4639 -14.8477 48.1279 -14.8477
c49.4082 0 89.5996 41.4717 89.5996 92.6719c0 18.4316 -5.37598 35.584 -14.3359 49.9199v0zM225.024 99.3281c0 -42.4961 15.3594 -80.8965 40.4473 -110.336l-64.2559 -38.6562l-201.216 120.832v241.664l200.96 121.088l200.96 -121.088v-47.6162
c-5.37598 0.511719 -10.752 0.768555 -16.1279 0.768555c-88.832 0 -160.768 -74.4961 -160.768 -166.656z" />
    <glyph glyph-name="invite" unicode="&#xf14f;" 
d="M128 328.448c4.35156 63.4873 56.5762 115.2 120.064 119.04c74.2393 4.35156 135.936 -54.5283 135.936 -128c0 -70.4004 -57.0879 -128 -128 -128c-73.7275 0 -132.864 62.4639 -128 136.96zM298.24 21.248c0 -33.0244 12.0322 -62.7197 32.2559 -85.248h-309.248
c-11.7764 0 -21.248 9.47168 -21.248 21.248v64c0 85.248 170.752 128 255.488 128c29.9521 0 69.8877 -5.12012 109.823 -15.3604c-39.9355 -21.5039 -67.0713 -64 -67.0713 -112.64zM512 42.752v-42.752h-64v-64h-42.752v64h-64v42.752h64v64h42.752v-64h64z" />
    <glyph glyph-name="job" unicode="&#xf150;" 
d="M257.134 129.135c-55.2617 0 -130.031 74.3262 -130.031 166.878c0 94.2676 48.7598 130.022 130.031 130.022s127.863 -36.8379 127.863 -130.022c0 -93.2012 -72.6016 -166.878 -127.863 -166.878zM509.891 7.50977
c8.53418 -24.1748 -9.29199 -49.5449 -34.9521 -49.5273h-437.828c-25.6348 0 -43.4521 25.3604 -34.9268 49.5352c6.18652 17.5625 13.6104 34.8672 20.8467 42.5557c13.4316 14.2764 90.5645 55.1934 124.663 72.918c2.21875 1.1543 6.04883 2.0918 8.5498 2.0918
c6.10156 0 13.4033 -4.3584 16.2998 -9.72949l38.9463 -72.0469c5.49512 -10.1631 20.7949 -7.37305 22.3398 4.0791c0.0605469 0.441406 0.109375 1.16113 0.109375 1.60645c0 1.62109 -0.611328 4.10059 -1.36426 5.53613l-8.60156 16.4102
c-0.751953 1.43652 -1.36328 3.91992 -1.36328 5.54199c0 2.40625 1.25684 5.85156 2.80566 7.69238l16.4268 19.5068c3.06641 3.6416 9.41797 6.5957 14.1777 6.5957c4.75586 0 11.1045 -2.9502 14.1699 -6.58691l16.4697 -19.5244
c1.5498 -1.83789 2.80762 -5.28027 2.80762 -7.68555c0 -1.62207 -0.611328 -4.10449 -1.36621 -5.54102l-8.60156 -16.418c-0.750977 -1.4375 -1.36035 -3.92188 -1.36035 -5.54395c0 -0.443359 0.0478516 -1.15918 0.106445 -1.59863
c1.55273 -11.4512 16.8447 -14.2422 22.3408 -4.0791l38.9453 72.0469c2.89551 5.37109 10.1982 9.72949 16.2998 9.72949c2.50098 0 6.33105 -0.936523 8.5498 -2.0918c34.0996 -17.7236 111.231 -58.6494 124.663 -72.917
c7.22852 -7.68848 14.6523 -24.9941 20.8467 -42.5557z" />
    <glyph glyph-name="job-arrow-up" unicode="&#xf151;" 
d="M28.4668 419.737v0v-455.475c0 0.102539 -0.101562 0.204102 -0.204102 0.204102h455.475c-0.102539 0 -0.204102 -0.101562 -0.204102 -0.204102v455.475c0 -0.102539 0.101562 -0.204102 0.204102 -0.204102h-455.475c0.102539 0 0.204102 0.101562 0.204102 0.204102
v0zM0 419.737c0 15.5654 12.6973 28.2627 28.2627 28.2627h455.475c15.5654 0 28.2627 -12.6973 28.2627 -28.2627v-455.475c0 -15.5654 -12.6973 -28.2627 -28.2627 -28.2627h-455.475c-15.5654 0 -28.2627 12.6973 -28.2627 28.2627v455.475zM271.462 15.5645
c0 -7.88477 -6.55273 -14.2334 -14.2334 -14.2334c-7.88477 0 -14.2334 6.55371 -14.2334 14.2334v213.504l-76.6973 -76.6973c-5.42773 -5.42676 -14.541 -5.22266 -19.9678 0.205078c-5.53027 5.5293 -5.42773 14.6426 -0.205078 19.9678l100.966 100.967
c2.66309 2.66211 6.24707 3.99316 9.83105 3.99316c3.68652 0 7.27051 -1.33105 9.93262 -3.99316l100.966 -100.967c5.42773 -5.42676 5.22266 -14.541 -0.204102 -19.9678c-5.53027 -5.5293 -14.6436 -5.42773 -19.9678 -0.205078l-76.1865 76.1855v-212.992z
M142.233 348.467c0 7.88477 6.55371 14.2344 14.2334 14.2344h199.066c7.88477 0 14.2334 -6.55371 14.2334 -14.2344c0 -7.88477 -6.55371 -14.2334 -14.2334 -14.2334h-199.066c-7.88477 0 -14.2334 6.55371 -14.2334 14.2334z" />
    <glyph glyph-name="job-station" unicode="&#xf1b0;" 
d="M244.419 -64c-13.4092 0 -128 62.7812 -128 79.2383c0 17.0664 88.9902 321.828 88.9902 321.828l-73.1426 90.8193s-10.9717 20.1143 21.333 20.1143h182.857c31.6953 0 15.8477 -20.1143 15.8477 -20.1143l-68.876 -90.8193s88.9902 -306.59 88.9902 -321.828
s-114.591 -79.2383 -128 -79.2383zM367.543 121.904v0l-65.2188 209.677l90.209 -149.943c4.2666 -6.7041 4.2666 -17.6758 -0.609375 -24.3809z" />
    <glyph glyph-name="join" unicode="&#xf17d;" 
d="M278.528 266.24c0 -50.1758 -26.8799 -93.1846 -66.0479 -112.896v-27.3916h-96.5127v27.3916c-38.9121 19.7119 -66.3037 62.7207 -66.3037 112.896c0 68.8633 50.9443 124.672 114.176 124.672c63.2324 0 114.688 -55.8086 114.688 -124.672zM327.168 -25.8564
h-325.888c-0.768555 6.65625 -1.28027 12.8008 -1.28027 19.4561c0 86.2725 73.7275 155.904 164.352 155.904s164.097 -69.6318 164.097 -155.904c0 -6.65527 -0.512695 -13.0557 -1.28027 -19.4561zM461.568 409.856v0c28.1592 0 50.6875 -17.6641 50.4316 -39.6807
v-356.096c0 -22.2725 -22.0156 -39.6797 -50.4316 -39.6797h-113.408v22.2715h113.408c16.6396 0 28.1592 8.95996 28.1592 17.1523v356.607c0 8.19238 -11.5195 17.1523 -28.1592 17.1523h-200.96v22.2725h200.96zM459.52 299.264
c0 -4.35156 -3.32715 -8.19141 -7.42383 -8.19141h-153.855c-4.09668 0 -7.42383 3.58398 -7.42383 8.19141v23.2959c0 4.35254 3.32715 8.19238 7.42383 8.19238h153.855c4.09668 0 7.42383 -3.58398 7.42383 -8.19238v-23.2959zM459.52 218.112
c0 -4.35254 -3.32715 -8.19238 -7.42383 -8.19238h-153.855c-4.09668 0 -7.42383 3.58398 -7.42383 8.19238v23.2959c0 4.35156 3.32715 8.19141 7.42383 8.19141h153.855c4.09668 0 7.42383 -3.58398 7.42383 -8.19141v-23.2959zM459.52 137.216
c0 -4.35156 -2.55957 -8.19141 -5.8877 -8.19141h-119.04c-3.07227 0 -5.8877 3.58398 -5.8877 8.19141v23.2959c0 4.35254 2.55957 8.19238 5.8877 8.19238h119.04c3.07227 0 5.8877 -3.58398 5.8877 -8.19238v-23.2959v0z" />
    <glyph glyph-name="life" unicode="&#xf152;" 
d="M501.9 432.4c0.399414 -3.4502 9.89941 -85.6504 -40.2002 -142.301c-29.7998 -33.75 -73.8506 -50.8496 -130.851 -50.8496c-17.3994 0 -36.1494 1.65039 -56.0498 4.84961v-82.1992h151.2v-176.4c0 -27.2998 -22.2002 -49.5 -49.5 -49.5h-225.65
c-27.2998 0 -49.5 22.2002 -49.5 49.5v176.35h143.801v38.9004c-8.60059 -1.59961 -20 -3.09961 -33.3506 -3.09961c-21.2998 0 -42.7002 3.75 -63.5498 11.0996c-26.4004 9.2998 -52.0996 24.5 -76.3496 45.1504c-16.9004 14.3994 -30.6504 32.75 -40.9502 54.5996
c-8.0498 17.1504 -14 36.4502 -17.6504 57.3496c-6.14941 35.3008 -3.64941 63.2002 -3.5498 64.3506l0.950195 10.3994l10.0996 2.60059c0.600586 0.200195 15.7002 4 39.2002 4c32.0498 0 80.9004 -7.0498 131.35 -40.7002c20.6504 -13.75 37.6504 -32.5 50.5 -55.6504
c6.85059 -12.3496 12.5 -25.9492 16.9502 -40.6494c2.7002 7.14941 5.75 14.7998 9.25 22.6494c21.6006 48.8008 47.3506 80.4004 76.5498 93.8506c38.1006 17.5996 78.4004 21.2998 105.45 21.2998c23.25 0 38.9502 -2.65039 39.6504 -2.7998l10.8496 -1.85059z" />
    <glyph glyph-name="line" unicode="&#xf171;" 
d="M51.2002 448h409.6c28.2627 0 51.2002 -22.9375 51.2002 -51.2002v-409.6c0 -28.2627 -22.9375 -51.2002 -51.2002 -51.2002h-409.6c-28.2627 0 -51.2002 22.9375 -51.2002 51.2002v409.6c0 28.2627 22.9375 51.2002 51.2002 51.2002zM51.2002 125.952l29.1836 -29.1846
l111.872 111.616l-29.1836 29.1846zM237.312 125.952l28.9287 -29.1846l194.56 194.305l-28.9277 28.9277zM292.096 119.552l-114.943 114.944l-29.9521 -30.208l114.943 -114.688z" />
    <glyph glyph-name="lineoff" unicode="&#xf17e;" 
d="M510.327 30.0283c0.917969 -2.90918 1.66309 -7.74609 1.66309 -10.7969c0 -15.3047 -12.0186 -30.8633 -26.8271 -34.7275l-180.882 -47.249c-2.46289 -0.644531 -6.52734 -1.16602 -9.07227 -1.16602c-6.6582 0 -16.3672 3.2627 -21.6729 7.28418l-87.791 66.5088
c-5.30664 4.02051 -15.0166 7.2832 -21.6748 7.2832c-2.43848 0 -6.33789 -0.479492 -8.7041 -1.07129l-110.72 -27.6816c-27.042 -6.75879 -51.1406 18.543 -43.0596 45.2266l49.1094 162.167c4.26074 14.0703 19.6504 25.4893 34.3506 25.4893h0.00488281h43.4521
c25.8555 -41.8389 62.0713 -76.3047 88.166 -101.043l4.97461 -4.72754c7.95508 -7.59375 23.3359 -13.7559 34.333 -13.7559h0.03125h0.0458984c10.957 0 26.2891 6.13184 34.2236 13.6875l4.28418 4.06152c24.7461 23.4326 61.9004 58.7607 88.499 101.777h40.6182
h0.00683594c14.5254 0 29.8604 -11.2432 34.2295 -25.0967zM245.188 140.254c-39.8848 37.9561 -114.483 105.421 -114.483 182.366c0 69.1963 56.0977 125.295 125.295 125.295s125.295 -56.0986 125.295 -125.304c0 -76.6895 -75.5713 -145.408 -114.518 -182.4
c-6.05859 -5.75977 -15.5303 -5.72559 -21.5889 0.0429688zM256 369.655c-25.6191 -0.344727 -46.4111 -21.4189 -46.4111 -47.04s20.792 -46.6943 46.4111 -47.04c0.174805 -0.00195312 0.458984 -0.00390625 0.633789 -0.00390625
c25.9678 0 47.0439 21.0762 47.0439 47.0439c0 25.9688 -21.0762 47.0449 -47.0439 47.0449c-0.174805 0 -0.458984 -0.00195312 -0.633789 -0.00488281z" />
    <glyph glyph-name="link" unicode="&#xf189;" 
d="M384 448c70.6562 0 128 -57.3438 128.256 -127.488c0 -34.3037 -13.3115 -66.5596 -37.376 -90.624l-45.5684 -45.5674c-4.60742 -4.6084 -10.752 -6.91211 -16.8955 -6.91211s-12.2881 2.30371 -16.8965 6.91211c-4.35156 4.60742 -6.91113 10.752 -6.91113 16.6396
c-0.256836 6.40039 2.04785 12.5439 6.91113 17.4082l45.5684 45.5674c15.1045 15.1045 23.5518 35.3281 23.5518 56.5762c0 44.0322 -36.0957 79.8721 -80.1279 79.8721c-21.5039 0 -41.4717 -8.44824 -56.5762 -23.5518l-96 -96
c-15.3594 -15.1045 -23.5518 -35.3281 -23.5518 -56.5762c0 -27.3916 13.8242 -52.4795 36.8643 -67.3281c5.63184 -3.58398 9.21582 -9.21582 10.4961 -15.1035c1.28027 -6.14453 0.255859 -12.5439 -3.32812 -18.1758
c-3.58398 -5.63281 -9.21582 -9.2168 -15.1045 -10.4961c-6.14355 -1.28027 -12.5439 -0.255859 -18.1758 3.32812c-37.1201 23.8076 -59.1357 64 -59.1357 107.775c0 34.0479 13.3115 66.3037 37.376 90.3682l96 96c24.3203 24.0645 56.3203 37.376 90.624 37.376z
M292.864 267.776c37.1201 -23.8086 59.1357 -64 59.1357 -107.776c0 -34.0479 -13.3115 -66.3037 -37.376 -90.3682l-96 -96c-24.3203 -24.3203 -56.3203 -37.6318 -90.624 -37.6318c-70.6562 0 -128 57.3438 -128 128c0 34.3037 13.3115 66.3037 37.376 90.3682
l45.5684 45.5674c4.60742 4.6084 10.752 6.91211 16.8955 6.91211c6.14453 0 12.2881 -2.30371 16.8965 -6.91211c4.35156 -4.60742 6.91211 -10.752 6.91211 -16.6396c0.255859 -6.39941 -2.04883 -12.5439 -6.91211 -17.4082l-45.5684 -45.5674
c-15.3604 -15.1045 -23.5518 -35.3281 -23.5518 -56.5762c0 -44.0322 35.8398 -79.8721 79.8721 -79.8721c21.5039 0 41.4717 8.44824 56.5762 23.5518l96 96c15.1035 15.1045 23.5518 35.3281 23.5518 56.5762c0 27.3916 -13.8242 52.4805 -36.8643 67.3281
c-5.63184 3.58398 -9.21582 9.21582 -10.4961 15.1035c-1.28027 6.14453 -0.255859 12.5439 3.32812 18.1768c3.58398 5.63184 9.21582 9.21582 15.1045 10.4951c6.14355 1.28027 12.5439 0.256836 18.1758 -3.32715z" />
    <glyph glyph-name="make-up" unicode="&#xf1a5;" 
d="M49.3867 406.33c-1.54297 0 -3.08691 0 -4.62988 -1.54395c-1.54297 -3.08594 -3.08691 -4.62988 -3.08691 -6.17285v-132.728c0 -4.62988 3.08691 -7.7168 7.7168 -7.7168h132.728c4.62988 0 7.7168 3.08691 7.7168 7.7168v132.728
c0 4.62988 -3.08691 7.7168 -7.7168 7.7168h-132.728zM49.3867 448h132.728c27.7803 0 49.3867 -21.6064 49.3867 -49.3867v-132.728c0 -27.7803 -21.6064 -49.3867 -49.3867 -49.3867h-132.728c-27.7803 0 -49.3867 21.6064 -49.3867 49.3867v132.728
c0 27.7803 21.6064 49.3867 49.3867 49.3867zM328.731 448h132.728c26.2363 0 47.8428 -21.6064 47.8428 -49.3867v-132.728c0 -27.7803 -21.6064 -49.3867 -49.3867 -49.3867h-132.727c-27.7803 0 -49.3877 21.6064 -49.3877 49.3867v132.728
c1.54395 27.7803 23.1504 49.3867 50.9307 49.3867zM328.731 406.33c-1.54297 0 -3.08691 0 -4.62988 -1.54395c-1.54395 -1.54297 -1.54395 -3.08594 -1.54395 -4.62988v-132.727c0 -4.63086 3.08691 -7.7168 7.7168 -7.7168h132.728
c4.62988 0 7.7168 3.08594 7.7168 7.7168v131.184c0 1.54297 0 3.08691 -1.54297 4.62988c-1.54395 1.54297 -3.08691 1.54297 -4.63086 1.54297h-135.813v1.54395zM49.3867 182.546h132.728c27.7803 0 49.3867 -21.6074 49.3867 -49.3877v-132.727
c0 -12.3467 -4.62988 -26.2373 -13.8896 -35.4971c-9.26074 -9.25977 -21.6074 -13.8896 -35.4971 -13.8896h-132.728c-27.7803 0 -49.3867 21.6064 -49.3867 49.3867v132.727c0 27.7803 21.6064 49.3877 49.3867 49.3877zM49.3867 140.875
c-4.62988 0 -7.7168 -3.08594 -7.7168 -7.7168v-132.727c0 -1.54395 0 -3.08691 1.54395 -4.62988c1.54297 -1.54395 3.08594 -1.54395 4.62988 -1.54395h132.727c1.54395 0 3.08691 0 4.63086 1.54395c1.54297 1.54297 1.54297 3.08594 1.54297 4.62988v132.727
c0 4.63086 -3.08691 7.7168 -7.7168 7.7168h-129.641zM328.731 182.546h132.728c27.7793 0 49.3867 -21.6074 49.3867 -49.3877v-132.727c0 -12.3467 -4.62988 -26.2373 -13.8906 -35.4971c-9.25977 -9.25977 -21.6064 -13.8896 -35.4961 -13.8896h-132.728
c-12.3467 0 -26.2373 4.62988 -35.4971 13.8896s-13.8896 21.6064 -13.8896 35.4971v132.727c0 27.7803 21.6064 49.3877 49.3867 49.3877zM328.731 140.875c-4.62988 0 -7.7168 -3.08594 -7.7168 -7.7168v-132.727c0 -1.54395 0 -3.08691 1.54297 -4.62988
c1.54395 -1.54395 3.08691 -1.54395 4.63086 -1.54395h132.727c1.54395 0 3.08691 0 4.62988 1.54395c1.54395 1.54297 1.54395 3.08594 1.54395 4.62988v132.727c0 4.63086 -3.08691 7.7168 -7.7168 7.7168h-129.641z" />
    <glyph glyph-name="male" unicode="&#xf17a;" 
d="M201.216 -27.3916c90.624 0 164.608 73.7275 164.608 164.607s-73.9844 164.608 -164.608 164.608c-90.8799 0 -164.607 -73.9844 -164.607 -164.608c0 -90.8799 73.9834 -164.607 164.607 -164.607zM493.824 448v0c9.9834 0 18.1758 -8.19238 18.1758 -18.1758v-146.433
c0 -9.9834 -8.19238 -18.1758 -18.1758 -18.1758c-9.98438 0 -18.1758 8.19238 -18.1758 18.1758v101.12l-119.297 -119.296c28.6729 -34.8154 46.0801 -79.3594 46.0801 -128c0 -111.104 -90.1113 -201.216 -201.216 -201.216
c-111.104 0 -201.216 90.1123 -201.216 201.216c0 111.104 90.1123 200.96 201.216 201.216c49.1523 0 94.208 -17.6641 129.28 -47.1035l120.32 120.32h-103.168c-9.98438 0 -18.1768 8.19141 -18.1768 18.1758c0 9.9834 8.19238 18.1758 18.1768 18.1758h146.176z" />
    <glyph glyph-name="medal" unicode="&#xf153;" 
d="M240.384 333.568c109.824 0 198.656 -89.0879 198.656 -198.656s-89.0879 -198.656 -198.656 -198.656c-109.567 0 -198.656 88.832 -198.656 198.656c0 109.568 88.832 198.656 198.656 198.656zM342.528 152.32v0c13.3115 13.3115 9.21582 25.5996 -8.44824 27.9033
l-54.2725 7.93652l-24.3193 49.1514c-8.19238 16.8965 -21.248 16.3848 -29.4404 0l-24.3203 -49.1514l-54.2715 -7.93652c-18.6885 -2.55957 -22.2725 -15.1035 -9.21582 -27.9033l39.168 -37.8887l-9.21582 -54.0156c-3.07227 -18.6885 7.42383 -25.8564 23.8076 -17.4082
l48.3838 25.0879l48.3838 -25.3438c16.6406 -8.7041 26.8809 -0.767578 23.8086 17.4082l-9.21582 54.0156zM426.24 448v0c7.67969 0 14.0801 -6.40039 14.0801 -14.0801c0 -3.07227 -1.02441 -5.8877 -2.81641 -8.19238l-56.5762 -114.176
c-47.8721 46.0801 -129.023 50.9443 -129.023 50.9443l37.8877 74.752c1.53613 6.14355 6.91211 10.752 13.5684 10.752h122.88zM226.816 362.496c0 0 -81.1523 -4.86426 -129.024 -50.9443l-56.5762 114.176c-1.53613 2.30469 -2.81543 5.12012 -2.81543 8.19238
c0 7.67969 6.39941 14.0801 14.0801 14.0801h122.88c6.65527 0 12.0312 -4.6084 13.5674 -10.752z" />
    <glyph glyph-name="member" unicode="&#xf170;" 
d="M511.836 65.3516c0 -19.7236 -14.2334 -35.6836 -37.7793 -35.2559c-11.8164 0.0595703 -10.8955 -0.227539 -21.709 0c-18.8584 0.405273 -17.626 11.874 -23.7754 35.2559c-15.1221 57.6143 -79.0713 133.026 -93.6445 141.741
c-38.4707 22.9736 10.3477 7.70898 10.3477 81.6279c0 18.9736 -4.31055 42.8105 -12.0713 58.8535c-6.04102 12.5635 -11.042 24.1523 12.0713 23.4346c45.9756 -1.46875 83.2656 -36.8652 83.2656 -82.2881c0 -28.4961 -14.6348 -53.5957 -36.916 -68.373
c4.3418 -1.00684 8.77051 -2.03906 13.6865 -3.33398c61.126 -17.7686 106.524 -90.6279 106.524 -151.662v0v0v0v0zM389.956 25.0068c-0.142578 -18.8555 -8.27832 -37.6592 -40.3076 -37.6338c-72.1133 0.0859375 -274.35 -0.256836 -309.254 0
c-39.1299 0.290039 -40.3945 19.5498 -40.3945 37.6338c0 87.1484 59.458 165.207 139.242 187.69c-35.1025 18.75 -52.7002 53.6797 -52.7002 94.1074c0 58.9688 48.6191 106.956 108.421 106.956c59.7451 0 108.365 -47.9863 108.365 -106.956
c0 -40.4277 -19.293 -75.3574 -54.3984 -94.1074c79.874 -22.4834 141.889 -101.345 141.026 -187.69v0v0v0v0zM389.956 25.0068z" />
    <glyph glyph-name="minus" unicode="&#xf154;" 
d="M256 -64c-141.312 0 -256 114.688 -256 256s114.688 256 256 256s256 -114.688 256 -256s-114.688 -256 -256 -256zM256 -24.5762c119.552 0 216.576 97.0244 216.576 216.576s-97.0244 216.576 -216.576 216.576s-216.576 -97.0244 -216.576 -216.576
s97.0244 -216.576 216.576 -216.576zM118.272 211.712h275.712v-38.4004h-275.712v38.4004z" />
    <glyph glyph-name="money" unicode="&#xf155;" 
d="M256 411.648h-0.0322266c-121.228 0 -219.616 -98.3887 -219.616 -219.616v-0.0322266v-0.0322266c0 -121.228 98.3887 -219.616 219.616 -219.616h0.0322266h0.0322266c121.228 0 219.616 98.3887 219.616 219.616v0.0322266v0.0322266
c0 121.228 -98.3887 219.616 -219.616 219.616h-0.0322266zM368.896 318.208l-92.6729 -123.136h66.8164h0.0644531c3.35645 0 6.08008 -2.72363 6.08008 -6.08008c0 -0.0175781 0 -0.046875 -0.000976562 -0.0644531v-11.7754
c-0.0507812 -3.34082 -2.80273 -6.09375 -6.14355 -6.14453h-72.1924v-29.9521h72.1924c0.0175781 0.000976562 0.046875 0.000976562 0.0644531 0.000976562c3.35645 0 6.08008 -2.72461 6.08008 -6.08008c0 -0.0175781 0 -0.046875 -0.000976562 -0.0644531v-11.7764
c-0.0507812 -3.33984 -2.80273 -6.09277 -6.14355 -6.14355h-72.1924v-45.5684c0 -3.07227 -2.81543 -5.8877 -6.39941 -5.8877h-17.1523c-3.58398 0 -6.39941 2.55957 -6.39941 5.8877v45.5684h-72.1924c-3.32812 0 -6.14453 2.81543 -6.14453 6.14355v11.7764
c0.0517578 3.34082 2.80371 6.09277 6.14453 6.14355h72.1924v29.9521h-72.1924c-3.32812 0 -6.14453 2.81641 -6.14453 6.14453v11.7754c0.0517578 3.34082 2.80371 6.09277 6.14453 6.14453h68.0957l-92.6719 123.136h39.4238l72.96 -97.0244l72.96 97.0244h39.4248z
M256 448c141.056 0 256 -114.944 256 -256s-114.944 -256 -256 -256s-256 114.944 -256 256s114.944 256 256 256z" />
    <glyph glyph-name="money2" unicode="&#xf199;" horiz-adv-x="511" 
d="M-32 271.616c0 13.5674 11.0078 24.5762 24.5762 24.5762h70.9111v-276.992h-70.9111c-13.5684 0 -24.5762 11.0078 -24.5762 24.5762v92.6719c18.1758 0 33.0234 14.8477 33.0234 33.0234c0 18.1768 -14.8477 33.0244 -33.0234 33.0244v69.1201zM398.336 286.976
c0 -14.8477 -21.7598 -16.3838 -21.7598 -32c0 -15.6152 21.7598 -9.72754 21.7598 -29.4395c0 -19.4561 -21.7598 -12.5439 -21.7598 -34.0479c0 -20.9922 21.7598 -12.7998 21.7598 -33.792s-21.7598 -11.0078 -21.7598 -31.4883
c0 -20.7363 21.7598 -13.3115 21.7598 -31.4883c0 -21.5039 -21.7598 -12.7998 -21.7598 -32.7676c0 -19.4561 17.9199 -12.7998 17.9199 -30.7197c0 -5.88867 -2.81641 -10.4961 -4.35254 -12.2881h-291.84v277.248h294.144
c1.28027 -1.02441 5.88867 -5.12012 5.88867 -9.2168zM285.695 221.184c1.79199 2.30469 1.28027 5.37598 -1.02344 6.91211l-13.0566 10.2402c-2.04785 1.79199 -5.11914 1.28027 -6.91113 -0.767578l-38.6562 -48.3848l-38.6562 48.3848
c-1.79199 2.04785 -4.86426 2.55957 -6.91211 0.767578l-13.0557 -10.2402c-2.04785 -1.79199 -2.56055 -4.86328 -0.768555 -6.91211l37.376 -46.5918h-32.5117c-2.55957 0 -4.86426 -2.04785 -4.86426 -4.86426v-16.8955c0 -2.55957 2.04883 -4.86426 4.86426 -4.86426
h39.4238v-13.8242h-39.4238c-2.55957 0 -4.86426 -2.04785 -4.86426 -4.86328v-16.8965c0 -2.55957 2.04883 -4.86426 4.86426 -4.86426h39.6807v-25.3438c0 -3.07227 2.55957 -5.63184 5.63184 -5.63184h19.1992c3.07227 0 5.63281 2.55957 5.63281 5.63184v25.3438h35.584
c2.55957 0 4.86328 2.04883 4.86328 4.86426v16.8965c0 2.55957 -2.04785 4.86328 -4.86328 4.86328h-35.584v13.8242h35.584c2.55957 0 4.86328 2.04785 4.86328 4.86426v16.8955c0 2.56055 -2.04785 4.86426 -4.86328 4.86426h-28.9287zM480 296.192
c0 -19.7119 -21.7607 -12.8008 -22.0166 -33.792c0 -20.9922 21.7607 -12.5439 21.7607 -33.792c0 -20.9922 -21.7607 -11.0088 -21.7607 -31.4883c0 -20.7363 21.7607 -13.3125 21.7607 -31.4883c0 -21.5039 -21.7607 -12.7998 -21.7607 -32.7676
c0 -19.4561 17.9199 -12.7998 17.9199 -30.7207c0 -5.8877 -2.81543 -10.4951 -4.35156 -12.2871h-53.5039c1.02344 18.1758 21.7598 10.2393 21.7598 31.2314c0 18.1758 -21.7598 10.752 -21.7598 31.4883c0 20.4795 21.7598 10.2402 21.7598 31.4883
c0 20.9912 -21.7598 12.5439 -21.7598 33.792c0 21.2471 21.7598 14.3359 21.7598 34.0479s-21.7598 13.8232 -21.7598 29.4395s21.7598 16.6406 21.7598 31.4883c0 4.0957 -4.60742 8.19238 -5.8877 9.21582h-253.952v44.2881h294.144
c1.28027 -1.02441 5.88867 -5.12012 5.88867 -9.21582c0 -14.5918 -21.7607 -15.8721 -21.7607 -31.4883s21.7607 -9.72754 21.7607 -29.4395zM145.151 366.592v-44.2881h-95.4873v19.7119c0 13.5684 11.0078 24.5762 24.5752 24.5762h70.9121z" />
    <glyph glyph-name="more2" unicode="&#xf182;" 
d="M64 128c-35.3281 0 -64 28.6719 -64 64s28.6719 64 64 64s64 -28.6719 64 -64s-28.6719 -64 -64 -64zM256 128c-35.3281 0 -64 28.6719 -64 64s28.6719 64 64 64s64 -28.6719 64 -64s-28.6719 -64 -64 -64zM448 128c-35.3281 0 -64 28.6719 -64 64s28.6719 64 64 64
s64 -28.6719 64 -64s-28.6719 -64 -64 -64z" />
    <glyph glyph-name="msg" unicode="&#xf156;" 
d="M45.3115 5.63184c-23.0391 0 -43.0078 19.9678 -43.0078 43.0078v315.904c0 24.3203 18.6885 43.0078 43.0078 43.0078h426.24c24.3203 0 43.0078 -18.6875 43.0078 -43.0078v-315.904c0 -24.3193 -18.6875 -43.0078 -43.0078 -43.0078h-233.216l-72.96 -75.7754
c-2.81641 -2.81641 -5.63184 -4.35254 -9.98438 -4.35254c-4.35156 0 -7.16797 1.53613 -9.9834 4.35254c-5.63184 5.63184 -5.63184 14.3359 0 19.9678l77.3115 80.1279c2.81641 2.81543 5.63184 4.35156 9.98438 4.35156h240.128
c8.7041 0 14.3359 5.63184 14.3359 14.3359v315.904c0 8.7041 -5.63184 14.3359 -14.3359 14.3359h-427.521c-8.70312 0 -14.3359 -5.63184 -14.3359 -14.3359v-315.904c0 -8.7041 5.63281 -14.3359 14.3359 -14.3359h105.729c8.7041 0 14.3359 -5.63184 14.3359 -14.3359
s-5.63184 -14.3359 -14.3359 -14.3359h-105.729zM175.36 217.344c8.7041 0 14.3359 -5.63184 14.3359 -14.3359s-5.63184 -14.3359 -14.3359 -14.3359h-72.96c-8.7041 0 -14.3359 5.63184 -14.3359 14.3359s5.63184 14.3359 14.3359 14.3359h72.96zM295.424 188.672
h-72.7041c-8.7041 0 -14.3359 5.63184 -14.3359 14.3359s5.63184 14.3359 14.3359 14.3359h72.7041c8.7041 0 14.3359 -5.63184 14.3359 -14.3359s-5.63184 -14.3359 -14.3359 -14.3359zM414.208 188.672h-72.96c-8.7041 0 -14.3359 5.63184 -14.3359 14.3359
s5.63184 14.3359 14.3359 14.3359h72.96c8.7041 0 14.3359 -5.63184 14.3359 -14.3359s-5.63184 -14.3359 -14.3359 -14.3359z" />
    <glyph glyph-name="msg2" unicode="&#xf18a;" 
d="M512 414.72v-342.527h-329.216l-109.568 -102.912v102.655h-73.2158v342.784h512v0zM402.176 209.152c20.2246 0 36.6084 15.3594 36.6084 34.3037s-16.3838 34.3037 -36.6084 34.3037c-20.2236 0 -36.6074 -15.3594 -36.6074 -34.3037
c0.255859 -18.9443 16.3838 -34.3037 36.6074 -34.3037v0zM256 209.152c20.2236 0 36.6084 15.3594 36.6084 34.3037s-16.3848 34.3037 -36.6084 34.3037s-36.6084 -15.3594 -36.6084 -34.3037s16.3848 -34.3037 36.6084 -34.3037v0zM109.824 209.152
c20.2236 0 36.6074 15.3594 36.6074 34.3037s-16.3838 34.3037 -36.6074 34.3037c-20.2246 0 -36.6084 -15.3594 -36.6084 -34.3037s16.3838 -34.3037 36.6084 -34.3037v0z" />
    <glyph glyph-name="nav" unicode="&#xf1b6;" 
d="M447.093 383.988l-161.163 -382.953l-62.9297 158.093l-158.093 66z" />
    <glyph glyph-name="niu" unicode="&#xf177;" 
d="M511.378 330.146c-0.701172 -11.5215 -10.1602 -83.6396 -106.98 -83.6396h-47.8945l-49.5312 -290.36s-3.97852 -19.6455 -25.1953 -19.6455h-51.7354c-21.0996 0 -25 19.6846 -25 19.6846l-49.1221 290.322h-48.7715c-96.8604 0 -106.317 71.6406 -107.021 83.085
c-1.5791 25.6357 11.8564 64.6611 27.1064 50.6025c0 0 39.333 -40.6836 79.9141 -40.6836h297.308c40.5811 0 79.7969 41.5615 79.7969 41.5615c15.2695 14.1523 28.6855 -25.1201 27.126 -50.9268l-177.162 -38.1426z" />
    <glyph glyph-name="not-accept" unicode="&#xf187;" 
d="M97.4844 -45.6699c6.34863 35.7373 11.9814 69.2217 18.3301 103.424c3.17383 17.9199 5.5293 35.7373 9.625 52.8379c3.1748 10.4453 -0.614258 21.709 -9.625 28.0576c-35.2256 31.8467 -69.5303 64.6143 -104.653 97.2803
c-3.17383 2.35547 -7.27051 3.89062 -11.1611 6.24609c0.819336 1.74121 1.84277 3.27734 3.17383 4.6084l79.0537 11.6738c27.1357 3.89062 54.2715 8.60156 81.5098 11.6729c9.4209 0.410156 17.7158 6.65625 20.7871 15.5654l64.7168 128.307
c2.45801 4.71094 4.81348 8.60156 8.80664 15.5654c7.27051 -13.9268 12.7998 -25.6006 19.1484 -37.376c18.3301 -35.7383 36.5576 -71.5781 54.2725 -107.315c3.68652 -8.39648 11.6738 -14.0293 20.7871 -14.6436c52.7363 -6.24609 105.472 -13.9258 159.744 -20.9922
c-1.74121 -3.37891 -3.8916 -6.45117 -6.34863 -9.31836c-31.9492 -31.1289 -64.7168 -61.4395 -97.4854 -91.75c-0.819336 -0.819336 -20.7871 -18.6367 -47.9229 -38.9121c-8.80664 -7.06543 -31.9492 21.9141 -55.9102 10.1377
c-39.9365 -20.1729 -7.27051 -56.0127 -16.7939 -62.9756c-14.541 -11.1621 -30.0029 -21.0947 -46.2852 -29.5938c-43.9297 -21.9141 -87.7568 -44.3398 -130.97 -66.9697c-4.19824 -2.25293 -8.39648 -4.0957 -12.7998 -5.5293zM405.812 32.1533l31.9482 -31.1289
c9.62598 -7.68066 11.2637 -21.709 3.58398 -31.335c-0.40918 -0.511719 -0.716797 -0.921875 -1.12598 -1.33105c-9.62598 -8.80664 -24.2695 -9.11328 -34.3047 -0.716797c-10.3418 9.31836 -20.7871 20.1729 -32.7676 31.8467l-29.5938 -28.7744
c-9.01074 -10.957 -25.0879 -12.4932 -36.0449 -3.58398c-0.204102 0.102539 -0.40918 0.306641 -0.511719 0.40918c-8.90918 9.01172 -8.80664 23.5518 0.205078 32.3584c0.716797 0.614258 1.43359 1.33105 2.15039 1.84375
c8.80566 10.1367 18.3291 19.4561 27.1357 29.5928c0.102539 1.33203 0.40918 2.66309 0.819336 3.8916l-28.7744 28.0576c-9.83105 7.16797 -11.9814 20.8896 -4.91504 30.6172c0.511719 0.716797 1.02344 1.33203 1.6377 2.04883
c9.11426 9.72754 24.3711 10.1367 34.0996 1.12598c0.40918 -0.307617 0.716797 -0.716797 1.12598 -1.12598c10.3428 -9.31836 19.9688 -19.4561 31.9492 -31.1299l24.7803 24.166c16.7939 16.3838 31.9492 18.6367 43.1113 6.24707
c10.3418 -10.957 7.26953 -23.3477 -9.62598 -38.9121z" />
    <glyph glyph-name="not-tech" unicode="&#xf1bd;" 
d="M256.874 139.229c-1.78027 0 -3.55566 0.458008 -5.15039 1.3418l-245.819 137.71c-3.3418 1.87793 -5.4043 5.40039 -5.4043 9.21289c0 3.81543 2.0625 7.34082 5.4043 9.21875l244.083 136.722c3.19434 1.77246 7.1123 1.77246 10.3096 0l245.798 -137.673
c3.3418 -1.87207 5.4043 -5.40332 5.4043 -9.21387c0 -3.8125 -2.0625 -7.33496 -5.38965 -9.21289l-244.067 -136.764c-1.61133 -0.890625 -3.38086 -1.3418 -5.16797 -1.3418zM32.6504 287.493l224.219 -125.608l222.471 124.663l-224.193 125.565l-222.496 -124.62v0z
M32.6504 287.493zM256.874 44.2305c-1.78027 0 -3.55566 0.456055 -5.15039 1.34277l-245.819 137.71c-5.09277 2.86621 -6.90625 9.29785 -4.05273 14.373c2.82422 5.0918 9.25586 6.90723 14.3623 4.06348l240.66 -134.828l238.903 133.876
c5.10059 2.84375 11.5479 1.03418 14.3691 -4.0625c2.85742 -5.0752 1.04004 -11.5078 -4.03711 -14.373l-244.067 -136.759c-1.61133 -0.886719 -3.38086 -1.34277 -5.16797 -1.34277zM256.874 -50.7627c-1.78027 0 -3.55566 0.456055 -5.15039 1.34082l-245.819 137.711
c-5.09277 2.8623 -6.90625 9.29199 -4.05273 14.3672c2.82422 5.09473 9.25586 6.92676 14.3623 4.06445l240.66 -134.828l238.903 133.876c5.10059 2.82324 11.5479 1.0332 14.3691 -4.06348c2.85742 -5.0752 1.04004 -11.5059 -4.03711 -14.3701l-244.067 -136.757
c-1.61133 -0.884766 -3.38086 -1.34082 -5.16797 -1.34082z" />
    <glyph glyph-name="notice" unicode="&#xf17f;" 
d="M280.32 400.896c25.5996 18.1758 47.6152 3.58398 47.6152 -25.6006v-365.824c0 -29.1836 -22.0156 -40.1914 -47.6152 -25.5996l-135.424 80.3838v256zM-1.28027 265.472c0 29.1846 25.6006 54.7842 54.7842 55.04h54.7842v-256h-54.7842
c-29.1836 0 -54.7842 25.6006 -54.7842 54.7842v146.176zM492.288 210.688c11.0078 0 18.4316 -7.4248 18.1758 -18.1768c0 -10.752 -7.16797 -18.1758 -18.1758 -18.1758h-73.2158c-10.752 0 -18.1758 7.16797 -18.1758 18.1758c0 10.752 7.16797 18.1768 18.1758 18.1768
h73.2158zM481.536 24.0645c7.16797 -3.58398 10.752 -18.1768 7.42383 -25.6006c-7.42383 -11.0078 -18.1758 -11.0078 -25.5996 -7.42383l-62.208 36.6084c-11.0088 7.42383 -11.0088 18.1758 -7.4248 25.5996c7.4248 11.0078 18.1768 11.0078 25.6006 7.42383z
M415.488 324.096c-7.16797 -3.83984 -18.1768 0 -22.0166 7.42383c-3.58398 11.0088 0 22.0166 7.4248 25.6006l62.207 36.6074c7.4248 3.58398 18.4326 0 22.0166 -7.42383c3.58398 -11.0078 0 -22.0156 -7.42383 -25.5996z" />
    <glyph glyph-name="offline" unicode="&#xf157;" 
d="M445.03 447.386c31.1299 0 56.3203 -27.2383 57.0371 -61.1328v-271.77c0 -33.6895 -25.3955 -61.1328 -56.5254 -61.1328h-101.171v-97.5869c-0.306641 -11.0596 -9.83008 -20.2754 -21.6064 -20.2754h-136.396c-11.7764 0 -21.2998 9.21582 -21.2998 20.2754v97.5869
h-97.0752c-31.1289 0 -56.5244 27.2383 -56.5244 61.1328v271.77c0 33.5869 25.3955 61.1328 56.5244 61.1328h377.037zM465.101 114.381v0l0.102539 271.872c0 13.4141 -9.01074 24.166 -20.0703 24.166h-377.14c-11.0586 0 -20.0703 -10.8545 -20.0703 -24.166v-271.872
c0 -13.4141 9.01172 -24.166 20.0703 -24.166h377.037c11.0596 0 20.0703 10.8535 20.0703 24.166zM467.456 1.94531v0c9.72754 0 17.7148 -7.47461 17.7148 -17.2031v-0.306641c0 -9.52344 -7.9873 -17.2031 -17.7148 -17.2031h-104.346v34.7129h104.346zM24.0645 -15.0527
c0 9.52344 7.88477 16.998 17.7148 16.8955h104.346v-34.4062h-104.346c-9.72852 0 -17.7148 7.68066 -17.7148 17.2031v0.307617zM378.266 351.232l-106.086 -100.864l106.291 -100.967l-17.2031 -18.5342l-107.11 101.99l-106.906 -101.683l-17.2031 18.2266
l106.087 100.659l-105.575 100.967l16.999 18.0225l106.599 -101.479l106.905 101.684z" />
    <glyph glyph-name="online" unicode="&#xf158;" 
d="M444.416 411.136c11.0078 0 19.9678 -10.752 19.9678 -24.0635v-270.849c0 -13.3115 -8.95996 -24.0635 -19.9678 -24.0635h-375.808c-11.0088 0 -19.9688 10.752 -19.9688 24.0635v270.849c0 13.3115 8.95996 24.0635 19.9688 24.0635h375.808zM444.416 448h-375.808
c-30.9766 0 -56.3203 -27.3916 -56.3203 -60.9277v-270.849c0 -33.792 25.3438 -60.9277 56.3203 -60.9277h376.063c30.9766 0 56.3203 27.3926 56.3203 60.9277v270.849c-0.511719 33.792 -25.6006 60.9277 -56.5762 60.9277zM322.56 -64h-135.936
c-11.7764 0 -21.248 9.21582 -21.248 20.2236v112.896h178.688v-112.896c-0.256836 -11.0078 -9.98438 -20.2236 -21.5049 -20.2236zM146.432 -31.7441h-103.936c-9.72852 0 -17.6641 7.67969 -17.6641 17.1523v0.255859c0 9.47168 7.93555 17.1523 17.6641 17.1523h103.936
v-34.5605zM362.752 -31.7441v34.5605h103.937c9.72754 0 17.6631 -7.68066 17.6631 -17.1523v-0.255859c0 -9.47266 -7.93555 -17.1523 -17.6631 -17.1523h-103.937zM237.824 136.96l-134.145 99.0723c-8.19141 5.8877 -9.72754 17.1514 -3.58398 25.0879
c6.14453 7.93555 17.9199 9.21582 26.1123 3.07227l108.544 -79.8721l151.808 146.943c7.16797 6.91211 18.9443 6.91211 26.1123 0s7.16797 -18.4316 0 -25.3438c0.255859 0.511719 -174.848 -168.96 -174.848 -168.96z" />
    <glyph glyph-name="paper" unicode="&#xf1b8;" 
d="M432 416c26.4961 0 48 -21.5039 48 -48v-64c0 -8.83203 -7.16797 -16 -16 -16h-48v-240c0 -44.1602 -35.8398 -80 -80 -80h-224c-44.1602 0 -80 35.8398 -80 80v32c0 8.83203 7.16797 16 16 16h48v240c0 44.1602 35.8398 80 80 80h256zM416 368v-48h32v48
c0 8.83203 -7.16797 16 -16 16s-16 -7.16797 -16 -16zM384 304v80h-208c-26.4961 0 -48 -21.5039 -48 -48v-240h160c8.83203 0 16 -7.16797 16 -16v-32v-0.0205078c0 -20.5234 16.1279 -41.3447 36 -46.4756c0.8125 -0.208008 2.08887 -0.666992 2.84766 -1.02344
c22.7158 3.27344 41.1523 24.5576 41.1523 47.5088v0.0107422v256zM272 64h-208v-16c0 -26.4961 21.5039 -48 48 -48h176c-10.1123 13.4404 -16 30.1436 -16 48v16zM176 288c-8.83203 0 -16 7.16797 -16 16s7.16797 16 16 16h128c8.83203 0 16 -7.16797 16 -16
s-7.16797 -16 -16 -16h-128zM176 192c-8.83203 0 -16 7.16797 -16 16s7.16797 16 16 16h64c8.83203 0 16 -7.16797 16 -16s-7.16797 -16 -16 -16h-64z" />
    <glyph glyph-name="pclogin" unicode="&#xf145;" 
d="M408.327 352.851v-213.276h-245.756l-58.9268 58.9268v154.35h304.683zM459.209 448c29.0996 0 52.6924 -23.6484 52.6924 -52.8174v-297.163c0 -29.1699 -23.5928 -52.8145 -52.6924 -52.8145h-129.921v-72.8994h91.1504c10.0254 0 18.1533 -8.12695 18.1533 -18.1523
s-8.12793 -18.1533 -18.1533 -18.1533h-55.0088l-145.217 145.217h256.064v329.313h-439.767v-145.611l-36.4121 36.4111v93.8516c0 29.1738 23.5928 52.8184 52.6924 52.8184h406.418z" />
    <glyph glyph-name="pen" unicode="&#xf193;" 
d="M145.92 -21.5039l-103.424 103.424l285.952 286.208l103.424 -103.424l-285.952 -286.208v0zM498.688 379.904v0c13.3115 -13.3125 12.5439 -36.0967 -2.04883 -50.6885l-51.9678 -51.4561l-103.424 103.424l51.7119 51.7129
c14.5918 14.5918 37.376 15.3594 50.6885 2.04785zM32.7676 65.792l96.7686 -96.7676l-133.376 -36.6084z" />
    <glyph glyph-name="pen2" unicode="&#xf1ab;" 
d="M486.4 302.08c15.3594 -33.2803 25.5996 -71.6797 25.5996 -110.08c0 -140.8 -115.2 -256 -256 -256s-256 115.2 -256 256s115.2 256 256 256c38.4004 0 76.7998 -10.2402 110.08 -25.5996l-171.521 -115.2l-74.2393 -235.521l148.479 148.48
c0 10.2402 0 17.9199 7.68066 25.5996c10.2393 10.2402 25.5996 10.2402 35.8398 0c10.2393 -10.2402 10.2393 -25.5996 0 -35.8398c-7.68066 -7.67969 -17.9199 -10.2402 -25.6006 -7.67969l-148.479 -148.48l235.52 74.2402z" />
    <glyph glyph-name="phone" unicode="&#xf146;" 
d="M432.64 385.024v0l-0.255859 -386.561c-1.28027 -35.8398 -31.4873 -64 -67.3281 -62.7197h-218.111c-36.0967 -1.02441 -66.3047 26.8799 -67.584 62.9756v386.305c1.53613 36.0957 31.7432 64.2559 67.584 62.7197h218.367
c35.8408 1.28027 66.0488 -26.8799 67.3281 -62.7197zM104.192 349.44v0l-0.256836 -303.104h304.129v303.104h-303.872zM146.944 424.96v0c-22.7842 0.767578 -41.9844 -16.8955 -43.0088 -39.9355v-12.8008h304.129v12.8008
c-1.02441 22.7832 -20.2246 40.7031 -43.0088 39.9355h-218.111zM365.056 -40.96c22.7842 -0.767578 41.9844 17.1523 42.752 39.9355v25.0889h-303.872v-25.0889c1.02441 -22.7832 20.2246 -40.7031 43.0088 -39.9355h218.111zM257.024 9.72754v0
c9.72754 0.256836 18.1758 -7.42383 18.6875 -17.4072c0 -9.2168 -6.91211 -16.8965 -16.1279 -17.4082c-9.72754 -0.768555 -17.9199 6.65625 -18.6875 16.1279c-0.768555 9.72754 6.65527 17.9199 16.1279 18.6875z" />
    <glyph glyph-name="pie" unicode="&#xf147;" 
d="M274.833 198.812v249.188c132.13 -6.55078 237.33 -115.434 237.33 -249.188h-237.33zM249.821 161.339h248.561c-12.5381 -126.236 -119.022 -224.839 -248.561 -224.839c-137.971 0 -249.821 111.851 -249.821 249.821c0 133.771 105.2 242.637 237.33 249.188
v-261.679c0.0195312 -6.87598 5.61523 -12.4717 12.4912 -12.4912z" />
    <glyph glyph-name="pk" unicode="&#xf1a1;" 
d="M309.396 58.6123l-296.07 296.07l-13.1982 78.0918c-1.2002 8.7998 6.29883 16.2988 15.0986 15.0986l78.0918 -13.1982l296.07 -296.07zM507.275 -14.0801c6.2998 -6.19922 6.2998 -16.2979 -0.0996094 -22.5977l-22.5977 -22.5977
c-6.2002 -6.2998 -16.2988 -6.2998 -22.5977 0l-59.2939 59.2939l-58.9941 -31.5967c-6.2002 -3.2998 -13.8994 -2.2002 -18.8984 2.7998l-17.498 17.498c-6.2998 6.19922 -6.2998 16.2979 0 22.5977l129.387 129.287c6.19922 6.29883 16.2988 6.29883 22.5977 0
l17.498 -17.498c5 -5 6.09961 -12.6992 2.7998 -18.8984l-31.5967 -58.9941zM498.677 354.683l-139.986 -139.985l-79.9922 79.9912l139.986 139.986l78.0918 13.1982c8.79883 1.2002 16.3984 -6.29883 15.0986 -15.0986zM153.411 169.401l79.9922 -79.9922
l-53.3945 -53.3945l24.5977 -24.6973c6.29883 -6.19922 6.29883 -16.2988 0 -22.5977l-17.499 -17.498c-4.99902 -5 -12.6982 -6.09961 -18.8975 -2.7998l-58.9941 31.5967l-59.2939 -59.2939c-6.19922 -6.2998 -16.2988 -6.2998 -22.5977 0l-22.5977 22.5977
c-6.2998 6.19922 -6.2998 16.2979 0 22.5977l59.2939 59.3945l-31.5967 58.9932c-3.2998 6.2002 -2.2002 13.8994 2.79883 18.8984l17.499 17.498c6.19922 6.2998 16.2979 6.2998 22.5977 0l24.6973 -24.6973z" />
    <glyph glyph-name="play" unicode="&#xf186;" 
d="M256 448c141.312 0 256 -114.688 256 -256s-114.688 -256 -256 -256s-256 114.688 -256 256s114.688 256 256 256zM256 -16c114.816 0 208 93.1836 208 208s-93.1836 208 -208 208s-208 -93.1836 -208 -208s93.1836 -208 208 -208zM192 304l192 -112l-192 -112v224z" />
    <glyph glyph-name="plus" unicode="&#xf148;" 
d="M412.8 211.2c9.60059 0 9.60059 -9.60059 9.60059 -19.2002s-6.40039 -16 -16 -16h-137.601v-137.6c0 -9.60059 -6.39941 -16 -16 -16c-9.59961 0 -16 6.39941 -16 16v137.6h-137.6c-9.60059 0 -16 6.40039 -16 16s6.39941 16 19.2002 16h137.6v140.8
c0 9.60059 6.40039 16 16 16s16 -6.39941 16 -16v-137.6h140.8zM256 448c140.8 0 256 -115.2 256 -256s-115.2 -256 -256 -256s-256 115.2 -256 256s115.2 256 256 256zM256 -28.7998c121.6 0 220.8 99.2002 220.8 220.8s-99.2002 220.8 -220.8 220.8
s-220.8 -99.2002 -220.8 -220.8s99.2002 -220.8 220.8 -220.8z" />
    <glyph glyph-name="plus2" unicode="&#xf1ae;" 
d="M231.281 216.719v148.316c0 13.6445 11.0742 24.7188 24.7188 24.7188s24.7188 -11.0742 24.7188 -24.7188v-148.316h148.316c13.6445 0 24.7188 -11.0742 24.7188 -24.7188s-11.0742 -24.7188 -24.7188 -24.7188h-148.316v-148.316
c0 -13.6445 -11.0742 -24.7188 -24.7188 -24.7188s-24.7188 11.0742 -24.7188 24.7188v148.316h-148.316c-13.6445 0 -24.7188 11.0742 -24.7188 24.7188s11.0742 24.7188 24.7188 24.7188h148.316z" />
    </font>
</defs>
</svg>
